<?xml version="1.0" encoding="utf-8"?>
<!-- Generator: Adobe Illustrator 28.7.1, SVG Export Plug-In . SVG Version: 9.03 Build 54978)  -->
<svg version="1.1" baseProfile="tiny" id="Layer_1" xmlns="http://www.w3.org/2000/svg" xmlns:xlink="http://www.w3.org/1999/xlink"
	 x="0px" y="0px" viewBox="0 0 723.35 135.57" overflow="visible" xml:space="preserve">
<g>
	<g>
		<path fill="#2B2B2B" d="M43.74,78.73c3.16,5.92,10.33,8.89,21.49,8.89h55.66l1.66-7.08H56.39C51.36,80.54,47.15,79.93,43.74,78.73
			z"/>
		<path fill="#2B2B2B" d="M159.55,63.96c2.19,4.1,2.47,9.63,0.81,16.58l-1.98,8.49c-4.03,16.98-15.5,25.46-34.41,25.46H31.2
			c-0.95,2.17-1.75,4.52-2.35,7.08h103.98c18.9,0,30.37-8.49,34.41-25.46l1.98-8.49C172.17,75.16,168.94,67.27,159.55,63.96z"/>
		<path fill="#2B2B2B" d="M172.09,28.2c-5.33,12.24-16,18.38-32.05,18.38H73.87l-1.99,8.49h10.51l0.33-1.41h66.17
			c18.9,0,30.37-8.49,34.41-25.46H172.09z"/>
	</g>
	<g>
		<path fill="#2B2B2B" d="M208.64,55.07h9.45l1.98-8.49c0.79-3.31,1.86-6.28,3.21-8.95l2.23-9.44H215L208.64,55.07z"/>
		<polygon fill="#2B2B2B" points="259.3,80.54 202.59,80.54 194.55,114.49 167.27,114.49 165.59,121.57 203.4,121.57 211.44,87.62 
			257.63,87.62 		"/>
		<path fill="#2B2B2B" d="M296.3,63.96c2.19,4.1,2.47,9.63,0.81,16.58l-8.03,33.95h-27.28l-1.68,7.08h37.81l8.03-33.95
			C308.92,75.16,305.69,67.27,296.3,63.96z"/>
		<polygon fill="#2B2B2B" points="309.51,28.2 305.15,46.59 257.88,46.59 255.9,55.07 266.41,55.07 266.73,53.66 314,53.66 
			320.04,28.2 		"/>
	</g>
	<g>
		<polygon fill="#2B2B2B" points="337.35,89.02 347.88,89.02 362.27,28.2 351.75,28.2 		"/>
		<path fill="#2B2B2B" d="M446.27,28.2l-20.44,86.29H321.85c-5.03,0-9.24-0.61-12.64-1.81c3.16,5.92,10.33,8.89,21.49,8.89h103.97
			l22.12-93.37H446.27z"/>
	</g>
	<g>
		<path fill="#2B2B2B" d="M566.27,96.1c-5.33,12.24-16,18.38-32.05,18.38h-93.45l-1.68,7.08h103.97c18.9,0,30.37-8.49,34.41-25.46
			H566.27z"/>
		<polygon fill="#2B2B2B" points="474.1,89.02 484.63,89.02 499.02,28.2 488.5,28.2 		"/>
	</g>
	<g>
		<polygon fill="#2B2B2B" points="610.86,89.02 621.38,89.02 635.77,28.2 625.25,28.2 		"/>
		<path fill="#2B2B2B" d="M703.02,96.1c-5.33,12.24-16,18.38-32.05,18.38h-93.45l-1.68,7.08h103.97c18.9,0,30.37-8.49,34.41-25.46
			H703.02z"/>
	</g>
</g>
<g>
	<path fill="#828282" d="M69.28,18.76h103.97c-4.03,16.98-15.5,25.46-34.41,25.46H72.68l-1.99,8.49h66.17
		c18.9,0,26.34,8.49,22.31,25.46l-1.98,8.49c-4.03,16.98-15.5,25.46-34.41,25.46H18.8c4.03-16.98,15.5-25.46,34.41-25.46h66.17
		l1.99-8.49H55.19c-18.9,0-26.34-8.49-22.31-25.46l1.98-8.49C38.9,27.25,50.37,18.76,69.28,18.76z"/>
	<path fill="#828282" d="M250.07,112.12l8.03-33.95H201.4l-8.03,33.95h-37.81l22.12-93.37h37.81l-8.04,33.95h9.45l1.98-8.49
		c4.03-16.98,15.5-25.46,34.41-25.46H310l-6.05,25.46h-47.26l-1.99,8.49h18.9c18.9,0,26.34,8.49,22.31,25.46l-8.03,33.95H250.07z"/>
	<path fill="#828282" d="M408.94,18.76h37.81l-22.12,93.37H320.66c-18.9,0-26.34-8.49-22.31-25.46l16.07-67.9h37.81l-16.07,67.9
		h56.71L408.94,18.76z"/>
	<path fill="#828282" d="M429.05,112.12l22.12-93.37h37.81l-16.07,67.9h94.52c-4.03,16.98-15.5,25.46-34.41,25.46H429.05z"/>
	<path fill="#828282" d="M565.8,112.12l22.12-93.37h37.81l-16.07,67.9h94.52c-4.03,16.98-15.5,25.46-34.41,25.46H565.8z"/>
</g>
<g>
	<g>
		<path fill="#DDDDDD" d="M314.42,104.31H418.4l8.13-34.33c-41.46,10.18-84.87,20.81-127.66,31.26
			C302.67,103.28,307.85,104.31,314.42,104.31z"/>
		<path fill="#DDDDDD" d="M431.22,68.82l-8.41,35.49h103.97c18.9,0,30.37-8.49,34.41-25.46h-94.52l4.71-19.89
			C458.28,62.18,444.86,65.48,431.22,68.82z"/>
		<path fill="#DDDDDD" d="M603.42,78.85l13.17-55.65c-12.05,2.97-25.52,6.3-40.16,9.91l-15.59,65.8l76.3-20.05H603.42z"/>
	</g>
	<g>
		<path fill="#DDDDDD" d="M114.54,104.31c18.9,0,30.37-8.49,34.41-25.46l1.05-4.5c-44.26,10.77-86.55,21.01-123.79,29.96H114.54z"/>
		<path fill="#DDDDDD" d="M282.38,92.77l5.3-22.41c3.69-15.55-2.25-23.98-17.81-25.28c-38.49,9.43-77.51,18.96-115.19,28.13
			l-7.37,31.1h37.81l8.03-33.95h56.71l-7.81,33.01L282.38,92.77z"/>
		<path fill="#DDDDDD" d="M327.92,78.85l12.06-50.96c-13.19,3.24-26.6,6.53-40.14,9.85l-9.73,41.11c-1.11,4.67-1.35,8.7-0.72,12.08
			l45.98-12.08H327.92z"/>
		<path fill="#DDDDDD" d="M438.51,10.94h-29.59c-2.89,0.71-5.8,1.43-8.73,2.15L387.9,65.04l40.3-10.59L438.51,10.94z"/>
		<polygon fill="#DDDDDD" points="480.74,10.94 442.93,10.94 432.92,53.21 473.24,42.62 		"/>
		<polygon fill="#DDDDDD" points="579.68,10.94 578.75,14.9 593.79,10.94 		"/>
	</g>
</g>
</svg>
