<?xml version="1.0" encoding="utf-8"?>
<!-- Generator: Adobe Illustrator 28.7.1, SVG Export Plug-In . SVG Version: 9.03 Build 54978)  -->
<svg version="1.1" baseProfile="tiny" id="Layer_1" xmlns="http://www.w3.org/2000/svg" xmlns:xlink="http://www.w3.org/1999/xlink"
	 x="0px" y="0px" viewBox="0 0 446.02 237.17" overflow="visible" xml:space="preserve">
<g>
	<g>
		<path fill="#12FFE2" d="M62.96,198.12c-36.98-10.74-45.78-66.8-10.56-84.84c34.35-17.6,67.53,15.72,36.46,42.78
			c-5.97,5.2-29.12,2.48-21.15-4.47c5.56-4.84,20.5-27.7,4.73-29.24C59,121.05,55.35,140.58,54.6,148.87
			c-0.75,8.29,0.15,18.46,5.05,25.66c14.69,21.61,41.87,5.77,49.46-12.28c11.49-27.35-0.01-53.49-26.34-67.5
			c-15.14-8.06-32.95-11.7-44.52-24.84C25.18,55.04,27.42,33.53,48.54,26.56c18.8-6.21,35.9,2.85,48.69,16.06
			c1.24-4.71,2.66-9.37,4.5-13.85c3.1-7.54,26.74-7.05,23.28,1.37c-5.54,13.48-8.09,28.13-8.32,42.5c-0.02,1.35-0.66,2.49-1.64,3.48
			c-0.19,0.2-0.37,0.4-0.59,0.59c-0.08,0.06-0.18,0.11-0.25,0.17c-4.13,3.17-12.82,4.14-17.66,2.03c-0.16-0.07-0.29-0.15-0.44-0.21
			c-0.24-0.12-0.49-0.22-0.7-0.36c-1.38-0.78-2.27-1.85-2.44-3.23c-4.72-10.1-27.95-48.19-38.48-32.19
			c-11.41,17.35,22.59,32.05,33.6,37.33c20.65,9.91,39.53,19.04,46.6,41.42C147.25,161.58,110.82,212.04,62.96,198.12z"/>
		<path fill="#12FFE2" d="M219.44,85.46c-14.2,34.74-21.37,75.25-11.14,111.96c2.14,7.72-21.71,10.52-24.09,1.96
			c-7.48-26.87-5.64-55.99,1.28-83.41c-8.15,4.86-17,8.48-26.5,10.24c-0.35,12.44-0.23,24.84,0.71,37.14
			c0.65,8.58-23.45,10.38-24.09,1.96c-3.35-43.75,3.01-88.97,7.92-132.48c1-8.88,24.96-9.72,24.09-1.96
			c-1.58,14-3.28,28.18-4.79,42.41c7.08-11.53,14.35-22.95,21.86-34.22c4.66-7,28.21-5.64,23.54,1.38
			c-15.2,22.83-29.54,46.22-42.81,70.07c12.62-6.43,23.61-18.43,31.58-28C200.8,77.91,223.12,76.46,219.44,85.46z"/>
		<path fill="#12FFE2" d="M279.14,170.11c-3.01-11.14-5.07-22.54-6.39-34.03c-3.39,6.01-7.05,11.88-11.28,17.41
			c-6.01,7.86-13.73,16.64-23.64,20.46c-0.99,0.38-2.11,0.6-3.29,0.73c-7.03,1.98-16.79,0.71-17.01-4.57
			c-1.96-45.02,10.29-92.88,23.06-135.94c2.29-7.73,26.24-7.71,23.54,1.39c-10.5,35.36-20.44,73.52-22.3,110.9
			c0.21-0.3,0.46-0.58,0.66-0.88c18.99-27.43,27.75-60.93,35-92.39c1.12-4.83,10.91-6.75,17.54-5.2c0.62,0.15,1.21,0.33,1.78,0.53
			c0.03,0.01,0.05,0.02,0.08,0.02c2.96,1.11,4.84,3.1,4.14,6.03c-8.76,36.85-7.69,76.9,2.21,113.59
			C305.32,175.91,281.44,178.67,279.14,170.11z"/>
		<path fill="#12FFE2" d="M371.15,120.34c3.72-0.97-1.92,0.72-3.89,1.57c-4.28,1.84-8.28,4.17-12.09,6.74
			c-15.42,10.35-26.27,25.12-34.02,41.06c-2.07,6.47-18.96,7.93-22.98,2.71c-0.83-0.81-1.17-1.82-0.91-3
			c-1.94-47.12,9.77-97.75,23.08-142.9c2.28-7.74,26.22-7.73,23.53,1.38c-9.94,33.7-18.87,70.05-21.76,105.87
			c11.44-11.42,25.33-20.53,41.51-24.77C375.22,105.95,386.66,116.27,371.15,120.34z"/>
		<path fill="#12FFE2" d="M410.91,120.34c3.72-0.97-1.92,0.72-3.89,1.57c-4.28,1.84-8.28,4.17-12.09,6.74
			c-15.42,10.35-26.27,25.12-34.02,41.06c-2.07,6.47-18.96,7.93-22.98,2.71c-0.83-0.81-1.17-1.82-0.91-3
			c-1.94-47.12,9.77-97.75,23.08-142.9c2.28-7.74,26.22-7.73,23.53,1.38c-9.94,33.7-18.87,70.05-21.76,105.87
			c11.44-11.42,25.33-20.53,41.51-24.77C414.98,105.95,426.42,116.27,410.91,120.34z"/>
	</g>
	<g>
		<path fill="#9D10FF" d="M76.23,198.12c-36.98-10.74-45.78-66.8-10.56-84.84c34.35-17.6,67.53,15.72,36.46,42.78
			c-5.97,5.2-29.12,2.48-21.15-4.47c5.56-4.84,20.5-27.7,4.73-29.24c-13.44-1.31-17.09,18.23-17.84,26.52
			c-0.75,8.29,0.15,18.46,5.05,25.66c14.69,21.61,41.87,5.77,49.46-12.28c11.49-27.35-0.01-53.49-26.34-67.5
			C80.9,86.69,63.09,83.05,51.52,69.9C38.44,55.04,40.69,33.53,61.81,26.56c18.8-6.21,35.9,2.85,48.69,16.06
			c1.24-4.71,2.66-9.37,4.5-13.85c3.1-7.54,26.74-7.05,23.28,1.37c-5.54,13.48-8.09,28.13-8.32,42.5c-0.02,1.35-0.66,2.49-1.64,3.48
			c-0.19,0.2-0.37,0.4-0.59,0.59c-0.08,0.06-0.18,0.11-0.25,0.17c-4.13,3.17-12.82,4.14-17.66,2.03c-0.16-0.07-0.29-0.15-0.44-0.21
			c-0.24-0.12-0.49-0.22-0.7-0.36c-1.38-0.78-2.27-1.85-2.44-3.23c-4.72-10.1-27.95-48.19-38.48-32.19
			c-11.41,17.35,22.59,32.05,33.6,37.33c20.65,9.91,39.53,19.04,46.6,41.42C160.52,161.58,124.09,212.04,76.23,198.12z"/>
		<path fill="#9D10FF" d="M232.71,85.46c-14.2,34.74-21.37,75.25-11.14,111.96c2.14,7.72-21.71,10.52-24.09,1.96
			c-7.48-26.87-5.64-55.99,1.28-83.41c-8.15,4.86-17,8.48-26.5,10.24c-0.35,12.44-0.23,24.84,0.71,37.14
			c0.65,8.58-23.45,10.38-24.09,1.96c-3.35-43.75,3.01-88.97,7.92-132.48c1-8.88,24.96-9.72,24.09-1.96
			c-1.58,14-3.28,28.18-4.79,42.41c7.08-11.53,14.35-22.95,21.86-34.22c4.66-7,28.21-5.64,23.54,1.38
			c-15.2,22.83-29.54,46.22-42.81,70.07c12.62-6.43,23.61-18.43,31.58-28C214.07,77.91,236.38,76.46,232.71,85.46z"/>
		<path fill="#9D10FF" d="M292.41,170.11c-3.01-11.14-5.07-22.54-6.39-34.03c-3.39,6.01-7.05,11.88-11.28,17.41
			c-6.01,7.86-13.73,16.64-23.64,20.46c-0.99,0.38-2.11,0.6-3.29,0.73c-7.02,1.98-16.79,0.71-17.01-4.57
			c-1.96-45.02,10.29-92.88,23.06-135.94c2.29-7.73,26.24-7.71,23.54,1.39c-10.5,35.36-20.44,73.52-22.3,110.9
			c0.21-0.3,0.46-0.58,0.66-0.88c18.99-27.43,27.75-60.93,35-92.39c1.12-4.83,10.91-6.75,17.54-5.2c0.62,0.15,1.21,0.33,1.78,0.53
			c0.03,0.01,0.05,0.02,0.08,0.02c2.96,1.11,4.84,3.1,4.14,6.03c-8.76,36.85-7.69,76.9,2.21,113.59
			C318.58,175.91,294.71,178.67,292.41,170.11z"/>
		<path fill="#9D10FF" d="M384.42,120.34c3.72-0.97-1.92,0.72-3.89,1.57c-4.28,1.84-8.28,4.17-12.09,6.74
			c-15.42,10.35-26.27,25.12-34.02,41.06c-2.07,6.47-18.96,7.93-22.98,2.71c-0.83-0.81-1.17-1.82-0.91-3
			c-1.94-47.12,9.77-97.75,23.08-142.9c2.28-7.74,26.22-7.73,23.53,1.38c-9.94,33.7-18.87,70.05-21.76,105.87
			c11.44-11.42,25.33-20.53,41.51-24.77C388.49,105.95,399.93,116.27,384.42,120.34z"/>
		<path fill="#9D10FF" d="M424.18,120.34c3.72-0.97-1.92,0.72-3.89,1.57c-4.28,1.84-8.28,4.17-12.09,6.74
			c-15.42,10.35-26.27,25.12-34.02,41.06c-2.07,6.47-18.96,7.93-22.98,2.71c-0.83-0.81-1.17-1.82-0.91-3
			c-1.94-47.12,9.77-97.75,23.08-142.9c2.28-7.74,26.22-7.73,23.53,1.38c-9.94,33.7-18.87,70.05-21.76,105.87
			c11.44-11.42,25.33-20.53,41.51-24.77C428.25,105.95,439.69,116.27,424.18,120.34z"/>
	</g>
	<g>
		<path fill="#24FF12" d="M68.97,215.05c-36.98-10.74-45.78-66.8-10.56-84.84c34.35-17.6,67.53,15.72,36.46,42.78
			c-5.97,5.2-29.12,2.48-21.15-4.47c5.56-4.84,20.5-27.7,4.73-29.24c-13.44-1.31-17.09,18.23-17.84,26.52
			c-0.75,8.29,0.15,18.46,5.05,25.66c14.69,21.61,41.87,5.77,49.46-12.28c11.49-27.35-0.01-53.49-26.34-67.5
			c-15.14-8.06-32.95-11.7-44.52-24.84C31.18,71.97,33.43,50.46,54.55,43.49c18.8-6.21,35.9,2.85,48.69,16.06
			c1.24-4.71,2.66-9.37,4.5-13.85c3.1-7.54,26.74-7.05,23.28,1.37c-5.54,13.48-8.09,28.13-8.32,42.5c-0.02,1.35-0.66,2.49-1.64,3.48
			c-0.19,0.2-0.37,0.4-0.59,0.59c-0.08,0.06-0.18,0.11-0.25,0.17c-4.13,3.17-12.82,4.14-17.66,2.03c-0.16-0.07-0.29-0.15-0.44-0.21
			c-0.24-0.12-0.49-0.22-0.7-0.36c-1.38-0.78-2.27-1.85-2.44-3.23c-4.72-10.1-27.95-48.19-38.48-32.19
			C49.08,77.21,83.08,91.91,94.09,97.2c20.65,9.91,39.53,19.04,46.6,41.42C153.26,178.51,116.83,228.97,68.97,215.05z"/>
		<path fill="#24FF12" d="M225.45,102.39c-14.2,34.74-21.37,75.25-11.14,111.96c2.14,7.72-21.71,10.52-24.09,1.96
			c-7.48-26.87-5.64-55.99,1.28-83.41c-8.15,4.86-17,8.48-26.5,10.24c-0.35,12.44-0.23,24.84,0.71,37.14
			c0.65,8.58-23.45,10.38-24.09,1.96c-3.35-43.75,3.01-88.97,7.92-132.48c1-8.88,24.96-9.72,24.09-1.96
			c-1.58,14-3.28,28.18-4.79,42.41c7.08-11.53,14.35-22.95,21.86-34.22c4.66-7,28.21-5.64,23.54,1.38
			c-15.2,22.83-29.54,46.22-42.81,70.07c12.62-6.43,23.61-18.43,31.58-28C206.81,94.84,229.12,93.39,225.45,102.39z"/>
		<path fill="#24FF12" d="M285.15,187.04c-3.01-11.14-5.07-22.54-6.39-34.03c-3.39,6.01-7.05,11.88-11.28,17.41
			c-6.01,7.86-13.73,16.64-23.64,20.46c-0.99,0.38-2.11,0.6-3.29,0.73c-7.03,1.98-16.79,0.71-17.01-4.57
			c-1.96-45.02,10.29-92.88,23.06-135.94c2.29-7.73,26.24-7.71,23.54,1.39c-10.5,35.36-20.44,73.52-22.3,110.9
			c0.21-0.3,0.46-0.58,0.66-0.88c18.99-27.43,27.75-60.93,35-92.39c1.12-4.83,10.91-6.75,17.54-5.2c0.62,0.15,1.21,0.33,1.78,0.53
			c0.03,0.01,0.05,0.02,0.08,0.02c2.96,1.11,4.84,3.1,4.14,6.03c-8.76,36.85-7.69,76.9,2.21,113.59
			C311.32,192.84,287.45,195.6,285.15,187.04z"/>
		<path fill="#24FF12" d="M377.16,137.27c3.72-0.97-1.92,0.72-3.89,1.57c-4.28,1.84-8.28,4.17-12.09,6.74
			c-15.42,10.35-26.27,25.12-34.02,41.06c-2.07,6.47-18.96,7.93-22.98,2.71c-0.83-0.81-1.17-1.82-0.91-3
			c-1.94-47.12,9.77-97.75,23.08-142.9c2.28-7.74,26.22-7.73,23.53,1.38c-9.94,33.7-18.87,70.05-21.76,105.87
			c11.44-11.42,25.33-20.53,41.51-24.77C381.23,122.88,392.67,133.2,377.16,137.27z"/>
		<path fill="#24FF12" d="M416.92,137.27c3.72-0.97-1.92,0.72-3.89,1.57c-4.28,1.84-8.28,4.17-12.09,6.74
			c-15.42,10.35-26.27,25.12-34.02,41.06c-2.07,6.47-18.96,7.93-22.98,2.71c-0.83-0.81-1.17-1.82-0.91-3
			c-1.94-47.12,9.77-97.75,23.08-142.9c2.28-7.74,26.22-7.73,23.53,1.38c-9.94,33.7-18.87,70.05-21.76,105.87
			c11.44-11.42,25.33-20.53,41.51-24.77C420.99,122.88,432.43,133.2,416.92,137.27z"/>
	</g>
	<g>
		<path fill="#02D0FF" d="M68.63,198.12c-36.98-10.74-45.78-66.8-10.56-84.84c34.35-17.6,67.53,15.72,36.46,42.78
			c-5.97,5.2-29.12,2.48-21.15-4.47c5.56-4.84,20.5-27.7,4.73-29.24c-13.44-1.31-17.09,18.23-17.84,26.52
			c-0.75,8.29,0.15,18.46,5.05,25.66c14.69,21.61,41.87,5.77,49.46-12.28c11.49-27.35-0.01-53.49-26.34-67.5
			C73.3,86.68,55.49,83.05,43.92,69.9C30.85,55.04,33.09,33.53,54.21,26.56c18.8-6.21,35.9,2.85,48.69,16.06
			c1.24-4.71,2.66-9.37,4.5-13.85c3.1-7.54,26.74-7.05,23.28,1.37c-5.54,13.48-8.09,28.13-8.32,42.5c-0.02,1.35-0.66,2.49-1.64,3.48
			c-0.19,0.2-0.37,0.4-0.59,0.59c-0.08,0.06-0.18,0.11-0.25,0.17c-4.13,3.17-12.82,4.14-17.66,2.03c-0.16-0.07-0.29-0.15-0.44-0.21
			c-0.24-0.12-0.49-0.22-0.7-0.36c-1.38-0.78-2.27-1.85-2.44-3.23c-4.72-10.1-27.95-48.19-38.48-32.19
			c-11.41,17.35,22.59,32.05,33.6,37.33c20.65,9.91,39.53,19.04,46.6,41.42C152.92,161.58,116.49,212.04,68.63,198.12z"/>
		<path fill="#02D0FF" d="M225.11,85.46c-14.2,34.74-21.37,75.25-11.14,111.96c2.14,7.72-21.71,10.52-24.09,1.96
			c-7.48-26.87-5.64-55.99,1.28-83.41c-8.15,4.86-17,8.48-26.5,10.24c-0.35,12.44-0.23,24.84,0.71,37.14
			c0.65,8.58-23.45,10.38-24.09,1.96c-3.35-43.75,3.01-88.97,7.92-132.48c1-8.88,24.96-9.72,24.09-1.96
			c-1.58,14-3.28,28.18-4.79,42.41c7.08-11.53,14.35-22.95,21.86-34.22c4.66-7,28.21-5.64,23.54,1.38
			c-15.2,22.83-29.54,46.22-42.81,70.07c12.62-6.43,23.61-18.43,31.58-28C206.47,77.91,228.79,76.46,225.11,85.46z"/>
		<path fill="#02D0FF" d="M284.81,170.11c-3.01-11.14-5.07-22.54-6.39-34.03c-3.39,6.01-7.05,11.88-11.28,17.41
			c-6.01,7.86-13.73,16.64-23.64,20.46c-0.99,0.38-2.11,0.6-3.29,0.73c-7.03,1.98-16.79,0.71-17.01-4.57
			c-1.96-45.02,10.29-92.88,23.06-135.94c2.29-7.73,26.24-7.71,23.54,1.39c-10.5,35.36-20.44,73.52-22.3,110.9
			c0.21-0.3,0.46-0.58,0.66-0.88c18.99-27.43,27.75-60.93,35-92.39c1.12-4.83,10.91-6.75,17.54-5.2c0.62,0.15,1.21,0.33,1.78,0.53
			c0.03,0.01,0.05,0.02,0.08,0.02c2.96,1.11,4.84,3.1,4.14,6.03c-8.76,36.85-7.69,76.9,2.21,113.59
			C310.99,175.91,287.11,178.67,284.81,170.11z"/>
		<path fill="#02D0FF" d="M376.82,120.34c3.72-0.97-1.92,0.72-3.89,1.57c-4.28,1.84-8.28,4.17-12.09,6.74
			c-15.42,10.35-26.27,25.12-34.02,41.06c-2.07,6.47-18.96,7.93-22.98,2.71c-0.83-0.81-1.17-1.82-0.91-3
			c-1.94-47.12,9.77-97.75,23.08-142.9c2.28-7.74,26.22-7.73,23.53,1.38c-9.94,33.7-18.87,70.05-21.76,105.87
			c11.44-11.42,25.33-20.53,41.51-24.77C380.89,105.95,392.33,116.27,376.82,120.34z"/>
		<path fill="#02D0FF" d="M416.58,120.34c3.72-0.97-1.92,0.72-3.89,1.57c-4.28,1.84-8.28,4.17-12.09,6.74
			c-15.42,10.35-26.27,25.12-34.02,41.06c-2.07,6.47-18.96,7.93-22.98,2.71c-0.83-0.81-1.17-1.82-0.91-3
			c-1.94-47.12,9.77-97.75,23.08-142.9c2.28-7.74,26.22-7.73,23.53,1.38c-9.94,33.7-18.87,70.05-21.76,105.87
			c11.44-11.42,25.33-20.53,41.51-24.77C420.65,105.95,432.09,116.27,416.58,120.34z"/>
	</g>
	<g>
		<path fill="#E7FC00" d="M69.97,203.56c-36.98-10.74-45.78-66.8-10.56-84.84c34.35-17.6,67.53,15.72,36.46,42.78
			c-5.97,5.2-29.12,2.48-21.15-4.47c5.56-4.84,20.5-27.7,4.73-29.24c-13.44-1.31-17.09,18.23-17.84,26.52
			c-0.75,8.29,0.15,18.46,5.05,25.66c14.69,21.61,41.87,5.77,49.46-12.28c11.49-27.35-0.01-53.49-26.34-67.5
			c-15.14-8.06-32.95-11.7-44.52-24.84C32.19,60.48,34.43,38.98,55.55,32c18.8-6.21,35.9,2.85,48.69,16.06
			c1.24-4.71,2.66-9.37,4.5-13.85c3.1-7.54,26.74-7.05,23.28,1.37c-5.54,13.48-8.09,28.13-8.32,42.5c-0.02,1.35-0.66,2.49-1.64,3.48
			c-0.19,0.2-0.37,0.4-0.59,0.59c-0.08,0.06-0.18,0.11-0.25,0.17c-4.13,3.17-12.82,4.14-17.66,2.03c-0.16-0.07-0.29-0.15-0.44-0.21
			c-0.24-0.12-0.49-0.22-0.7-0.36c-1.38-0.78-2.27-1.85-2.44-3.23c-4.72-10.1-27.95-48.19-38.48-32.19
			c-11.41,17.35,22.59,32.05,33.6,37.33c20.65,9.91,39.53,19.04,46.6,41.42C154.26,167.02,117.83,217.48,69.97,203.56z"/>
		<path fill="#E7FC00" d="M226.45,90.91c-14.2,34.74-21.37,75.25-11.14,111.96c2.14,7.72-21.71,10.52-24.09,1.96
			c-7.48-26.87-5.64-55.99,1.28-83.41c-8.15,4.86-17,8.48-26.5,10.24c-0.35,12.44-0.23,24.84,0.71,37.14
			c0.65,8.58-23.45,10.38-24.09,1.96c-3.35-43.75,3.01-88.97,7.92-132.48c1-8.88,24.96-9.72,24.09-1.96
			c-1.58,14-3.28,28.18-4.79,42.41c7.08-11.53,14.35-22.95,21.86-34.22c4.66-7,28.21-5.64,23.54,1.38
			c-15.2,22.83-29.54,46.22-42.81,70.07c12.62-6.43,23.61-18.43,31.58-28C207.81,83.35,230.12,81.91,226.45,90.91z"/>
		<path fill="#E7FC00" d="M286.15,175.56c-3.01-11.14-5.07-22.54-6.39-34.03c-3.39,6.01-7.05,11.88-11.28,17.41
			c-6.01,7.86-13.73,16.64-23.64,20.46c-0.98,0.38-2.11,0.6-3.29,0.73c-7.03,1.98-16.79,0.71-17.01-4.57
			c-1.96-45.02,10.29-92.88,23.06-135.94c2.29-7.73,26.24-7.71,23.54,1.39c-10.5,35.36-20.44,73.52-22.3,110.9
			c0.21-0.3,0.46-0.58,0.66-0.88c18.99-27.43,27.75-60.93,35-92.39c1.12-4.83,10.91-6.75,17.54-5.2c0.62,0.15,1.21,0.33,1.78,0.53
			c0.03,0.01,0.05,0.02,0.08,0.02c2.96,1.11,4.84,3.1,4.14,6.03c-8.76,36.85-7.69,76.9,2.21,113.59
			C312.32,181.36,288.45,184.12,286.15,175.56z"/>
		<path fill="#E7FC00" d="M378.16,125.79c3.72-0.97-1.92,0.72-3.89,1.57c-4.28,1.84-8.28,4.17-12.09,6.74
			c-15.42,10.35-26.27,25.12-34.02,41.06c-2.07,6.47-18.96,7.93-22.98,2.71c-0.83-0.81-1.17-1.82-0.91-3
			c-1.94-47.12,9.77-97.75,23.08-142.9c2.28-7.74,26.22-7.73,23.53,1.38c-9.94,33.7-18.87,70.05-21.76,105.87
			c11.44-11.42,25.33-20.53,41.51-24.77C382.23,111.39,393.67,121.71,378.16,125.79z"/>
		<path fill="#E7FC00" d="M417.92,125.79c3.72-0.97-1.92,0.72-3.89,1.57c-4.28,1.84-8.28,4.17-12.09,6.74
			c-15.42,10.35-26.27,25.12-34.02,41.06c-2.07,6.47-18.96,7.93-22.98,2.71c-0.83-0.81-1.17-1.82-0.91-3
			c-1.94-47.12,9.77-97.75,23.08-142.9c2.28-7.74,26.22-7.73,23.53,1.38c-9.94,33.7-18.87,70.05-21.76,105.87
			c11.44-11.42,25.33-20.53,41.51-24.77C421.99,111.39,433.43,121.71,417.92,125.79z"/>
	</g>
	<g>
		<path fill="#FF02A6" d="M64.3,208.57c-36.98-10.74-45.78-66.8-10.56-84.84c34.35-17.6,67.53,15.72,36.46,42.78
			c-5.97,5.2-29.12,2.48-21.15-4.47c5.56-4.84,20.5-27.7,4.73-29.24c-13.44-1.31-17.09,18.23-17.84,26.52
			c-0.75,8.29,0.15,18.46,5.05,25.66c14.69,21.61,41.87,5.77,49.46-12.28c11.49-27.35-0.01-53.49-26.34-67.5
			c-15.14-8.06-32.95-11.7-44.52-24.84C26.52,65.49,28.76,43.98,49.88,37.01c18.8-6.21,35.9,2.85,48.69,16.06
			c1.24-4.71,2.66-9.37,4.5-13.85c3.1-7.54,26.74-7.05,23.28,1.37c-5.54,13.48-8.09,28.13-8.32,42.5c-0.02,1.35-0.66,2.49-1.63,3.48
			c-0.19,0.2-0.37,0.4-0.59,0.59c-0.08,0.06-0.18,0.11-0.25,0.17c-4.13,3.17-12.82,4.14-17.66,2.03c-0.16-0.07-0.29-0.15-0.44-0.21
			c-0.24-0.12-0.49-0.22-0.7-0.36c-1.38-0.78-2.27-1.85-2.44-3.23c-4.72-10.1-27.95-48.19-38.48-32.19
			c-11.41,17.35,22.59,32.05,33.6,37.33c20.65,9.91,39.53,19.04,46.59,41.42C148.59,172.03,112.16,222.48,64.3,208.57z"/>
		<path fill="#FF02A6" d="M220.78,95.91c-14.2,34.74-21.37,75.25-11.14,111.96c2.14,7.72-21.71,10.52-24.09,1.96
			c-7.48-26.87-5.64-55.99,1.28-83.41c-8.15,4.86-17,8.48-26.5,10.24c-0.35,12.44-0.23,24.84,0.71,37.14
			c0.65,8.58-23.45,10.38-24.09,1.96c-3.35-43.75,3.01-88.97,7.92-132.48c1-8.88,24.96-9.72,24.09-1.96
			c-1.58,14-3.28,28.18-4.79,42.41c7.08-11.53,14.35-22.95,21.86-34.22c4.66-7,28.21-5.64,23.54,1.38
			c-15.2,22.83-29.54,46.22-42.81,70.07c12.62-6.43,23.61-18.43,31.58-28C202.14,88.36,224.46,86.91,220.78,95.91z"/>
		<path fill="#FF02A6" d="M280.48,180.56c-3.01-11.14-5.07-22.54-6.39-34.03c-3.39,6.01-7.05,11.88-11.28,17.41
			c-6.01,7.86-13.73,16.64-23.64,20.46c-0.99,0.38-2.11,0.6-3.29,0.73c-7.03,1.98-16.79,0.71-17.01-4.57
			c-1.96-45.02,10.29-92.88,23.06-135.94c2.29-7.73,26.24-7.71,23.54,1.39c-10.5,35.36-20.44,73.52-22.3,110.9
			c0.21-0.3,0.46-0.58,0.66-0.88c18.99-27.43,27.75-60.93,35-92.39c1.12-4.83,10.91-6.75,17.54-5.2c0.62,0.15,1.21,0.33,1.78,0.53
			c0.03,0.01,0.05,0.02,0.08,0.02c2.96,1.11,4.84,3.1,4.14,6.03c-8.76,36.85-7.69,76.9,2.21,113.59
			C306.66,186.36,282.78,189.12,280.48,180.56z"/>
		<path fill="#FF02A6" d="M372.49,130.79c3.72-0.97-1.92,0.72-3.89,1.57c-4.28,1.84-8.28,4.17-12.09,6.74
			c-15.42,10.35-26.27,25.12-34.02,41.06c-2.07,6.47-18.96,7.93-22.98,2.71c-0.83-0.81-1.17-1.82-0.91-3
			c-1.94-47.12,9.77-97.75,23.08-142.9c2.28-7.74,26.22-7.73,23.53,1.38c-9.94,33.7-18.87,70.05-21.76,105.87
			c11.44-11.42,25.33-20.53,41.51-24.77C376.56,116.39,388,126.72,372.49,130.79z"/>
		<path fill="#FF02A6" d="M412.25,130.79c3.72-0.97-1.92,0.72-3.89,1.57c-4.28,1.84-8.28,4.17-12.09,6.74
			c-15.42,10.35-26.27,25.12-34.02,41.06c-2.07,6.47-18.96,7.93-22.98,2.71c-0.83-0.81-1.17-1.82-0.91-3
			c-1.94-47.12,9.77-97.75,23.08-142.9c2.28-7.74,26.22-7.73,23.53,1.38c-9.94,33.7-18.87,70.05-21.76,105.87
			c11.44-11.42,25.33-20.53,41.51-24.77C416.32,116.39,427.76,126.72,412.25,130.79z"/>
	</g>
	<g>
		<path d="M71.31,208.57c-36.98-10.74-45.78-66.8-10.56-84.84c34.35-17.6,67.53,15.72,36.46,42.78c-5.97,5.2-29.12,2.48-21.15-4.47
			c5.56-4.84,20.5-27.7,4.73-29.24c-13.44-1.31-17.09,18.23-17.84,26.52c-0.75,8.29,0.15,18.46,5.05,25.66
			c14.69,21.61,41.87,5.77,49.46-12.28c11.49-27.35-0.01-53.49-26.34-67.5C75.98,97.13,58.17,93.5,46.6,80.35
			C33.52,65.49,35.77,43.98,56.89,37.01c18.8-6.21,35.9,2.85,48.69,16.06c1.24-4.71,2.66-9.37,4.5-13.85
			c3.1-7.54,26.74-7.05,23.28,1.37c-5.54,13.48-8.09,28.13-8.32,42.5c-0.02,1.35-0.66,2.49-1.64,3.48c-0.19,0.2-0.37,0.4-0.59,0.59
			c-0.08,0.06-0.18,0.11-0.25,0.17c-4.13,3.17-12.82,4.14-17.66,2.03c-0.16-0.07-0.29-0.15-0.44-0.21c-0.24-0.12-0.49-0.22-0.7-0.36
			c-1.38-0.78-2.27-1.85-2.44-3.23c-4.72-10.1-27.95-48.19-38.48-32.19c-11.41,17.35,22.59,32.05,33.6,37.33
			c20.65,9.91,39.53,19.04,46.6,41.42C155.6,172.03,119.17,222.48,71.31,208.57z"/>
		<path d="M227.79,95.91c-14.2,34.74-21.37,75.25-11.14,111.96c2.14,7.72-21.71,10.52-24.09,1.96c-7.48-26.87-5.64-55.99,1.28-83.41
			c-8.15,4.86-17,8.48-26.5,10.24c-0.35,12.44-0.23,24.84,0.71,37.14c0.65,8.58-23.45,10.38-24.09,1.96
			c-3.35-43.75,3.01-88.97,7.92-132.48c1-8.88,24.96-9.72,24.09-1.96c-1.58,14-3.28,28.18-4.79,42.41
			c7.08-11.53,14.35-22.95,21.86-34.22c4.66-7,28.21-5.64,23.54,1.38c-15.2,22.83-29.54,46.22-42.81,70.07
			c12.62-6.43,23.61-18.43,31.58-28C209.15,88.36,231.46,86.91,227.79,95.91z"/>
		<path d="M287.49,180.56c-3.01-11.14-5.07-22.54-6.39-34.03c-3.39,6.01-7.05,11.88-11.28,17.41c-6.01,7.86-13.73,16.64-23.64,20.46
			c-0.99,0.38-2.11,0.6-3.29,0.73c-7.03,1.98-16.79,0.71-17.01-4.57c-1.96-45.02,10.29-92.88,23.06-135.94
			c2.29-7.73,26.24-7.71,23.54,1.39c-10.5,35.36-20.44,73.52-22.3,110.9c0.21-0.3,0.46-0.58,0.66-0.88
			c18.99-27.43,27.75-60.93,35-92.39c1.12-4.83,10.91-6.75,17.54-5.2c0.62,0.15,1.21,0.33,1.78,0.53c0.03,0.01,0.05,0.02,0.08,0.02
			c2.96,1.11,4.84,3.1,4.14,6.03c-8.76,36.85-7.69,76.9,2.21,113.59C313.66,186.36,289.79,189.12,287.49,180.56z"/>
		<path d="M379.5,130.79c3.72-0.97-1.92,0.72-3.89,1.57c-4.28,1.84-8.28,4.17-12.09,6.74c-15.42,10.35-26.27,25.12-34.02,41.06
			c-2.07,6.47-18.96,7.93-22.98,2.71c-0.83-0.81-1.17-1.82-0.91-3c-1.94-47.12,9.77-97.75,23.08-142.9
			c2.28-7.74,26.22-7.73,23.53,1.38c-9.94,33.7-18.87,70.05-21.76,105.87c11.44-11.42,25.33-20.53,41.51-24.77
			C383.57,116.39,395.01,126.72,379.5,130.79z"/>
		<path d="M419.26,130.79c3.72-0.97-1.92,0.72-3.89,1.57c-4.28,1.84-8.28,4.17-12.09,6.74c-15.42,10.35-26.27,25.12-34.02,41.06
			c-2.07,6.47-18.96,7.93-22.98,2.71c-0.83-0.81-1.17-1.82-0.91-3c-1.94-47.12,9.77-97.75,23.08-142.9
			c2.28-7.74,26.22-7.73,23.53,1.38c-9.94,33.7-18.87,70.05-21.76,105.87c11.44-11.42,25.33-20.53,41.51-24.77
			C423.33,116.39,434.77,126.72,419.26,130.79z"/>
	</g>
</g>
</svg>
