<?xml version="1.0" encoding="utf-8"?>
<!-- Generator: Adobe Illustrator 28.7.1, SVG Export Plug-In . SVG Version: 9.03 Build 54978)  -->
<svg version="1.1" baseProfile="tiny" id="Layer_1" xmlns="http://www.w3.org/2000/svg" xmlns:xlink="http://www.w3.org/1999/xlink"
	 x="0px" y="0px" viewBox="0 0 723.35 135.57" overflow="visible" xml:space="preserve">
<g>
	<path fill="#828282" d="M104.88,42.76l-0.09,0.36l1.36-0.36l14.55,0.03l-0.46,1.89l-1.18-0.36l-0.6,0l-0.09,0.36
		c1.24,0,1.56,1.28,0.94,3.83l-0.19,0.76l-1.17-0.41l-0.6,0L117,50.39c0.4,0,0.54,0.26,0.41,0.77l0.67,0l0.19-0.76l0.6,0l-0.28,1.17
		c-0.72,1.32-1.1,2.08-1.15,2.29l-3.11-0.41l0.19-0.76l1.27,0l0.09-0.36l-1.27,0l-1.54,1.12l0.2,1.94l-1.27,0l0.19-0.76l-1.27,0
		l-0.04,2.65l-1.18-0.36c-0.06,0.27-0.36,0.64-0.87,1.12c0.94,0,1.76,0.14,2.44,0.41c0.07-0.27,0.36-0.66,0.88-1.17
		c-0.28-0.48-0.39-0.86-0.32-1.13l2.05-0.76l-0.09,0.36c-0.52,0.51-0.81,0.9-0.88,1.17c0.81-0.27,1.69-0.4,2.64-0.4l-0.49-0.77
		l2.54,0.01l-0.65,2.7c-0.85,0-1.3,0.12-1.36,0.36c0.33,0.48,0.46,0.86,0.4,1.13l-1.18-0.36l-0.09,0.36
		c0.82,0.09,1.19,0.35,1.08,0.77l-1.55,1.17c-2.39-0.6-3.54-1.12-3.44-1.54c0.4,0,0.63-0.13,0.69-0.4c-0.86,0.27-1.52,0.4-1.96,0.4
		l-0.27,1.12c2.09,0,3.04,0.4,2.85,1.18l-2.05,0.76l0.19-0.76l-0.67,0l-0.19,0.76c0.45,0,0.64,0.12,0.58,0.36
		c-1.98,0.15-3.85,0.91-5.63,2.28l-5.63,2.28l-1.18-0.36L98,68.7l-0.09,0.36c-1.69,0-2.6,0.25-2.72,0.76l-1.18-0.36l-0.67,0
		l-0.09,0.36l1.27,0c-0.09,0.39-1.06,0.9-2.91,1.52c0.06-0.24-0.11-0.36-0.51-0.36l-0.19,0.76l-0.67,0l0.19-0.76l-1.27,0l-0.19,0.76
		l1.27,0l-0.09,0.36l-4.96,2.28c0.07-0.27-0.13-0.41-0.57-0.41l-0.1,0.4c0.45,0,0.64,0.12,0.58,0.36c-0.95,0-1.82,0.13-2.64,0.4
		c0.07-0.27-0.13-0.41-0.57-0.41l-0.78,0.76l0.6,0c-0.52,0.51-0.82,0.9-0.88,1.17l-0.67,0c0.15-0.63-0.12-1.27-0.8-1.94l0.09-0.36
		l1.18,0.36c0.05-1.02-0.45-1.53-1.5-1.53l0.17-0.72l2.63-0.4c0.25-1.02-0.48-1.53-2.17-1.53c0.27-0.51,0.76-0.76,1.45-0.76l1.27,0
		c-0.05,1.02,0.45,1.53,1.5,1.53l0.09-0.36c-0.4,0-0.56-0.14-0.5-0.41c0.2,0,1.07-0.12,2.62-0.35l0.41,0.77
		c-1.58,0.75-2.71,1.12-3.41,1.12l-0.1,0.4l0.6,0c0.91-0.27,1.59-0.4,2.04-0.4l-0.86,0.76l-0.09,0.36l0.67,0
		c0.04-0.15,0.58-0.64,1.63-1.48l0.6,0l-0.19,0.76l0.67,0l0.1-0.4c-0.33-0.48-0.46-0.86-0.4-1.13c0.84,0,1.33-0.25,1.45-0.76
		l1.18,0.36l0.67,0l-0.49-0.77l1.36-0.36l-0.19,0.76l0.67,0l0.56-2.29l-0.67,0l0.19-0.76l1.18,0.36l1.04-1.53l-1.37,0.4
		c0.37-1.53,0.13-2.29-0.71-2.3l-1.94,0l0.1-0.4l-0.6,0c-0.45,0-0.7,0.13-0.77,0.4c-1.25,0-1.77-0.39-1.58-1.17l-0.67,0l-0.19,0.76
		c0.45,0,0.64,0.14,0.57,0.41c-1,0-1.79,0.63-2.4,1.88l1.27,0l0.37-1.53l1.17,0.41l-0.78,0.76l-0.09,0.36l0.6,0l0.19-0.76l0.67,0
		l-0.19,0.76c-0.64,0.78-1.15,1.17-1.55,1.17c-0.78-0.27-1.39-0.41-1.84-0.41c-0.6,0.84-1.57,1.35-2.91,1.52l-0.23-1.53l-1.27,0
		l0.13,1.94l-0.09,0.36c-0.45,0-1.1,0.13-1.96,0.4l0.19-0.76c-0.6,0-1.31,0.37-2.14,1.12c0.76,0.78,2.13,1.17,4.12,1.18l-0.19,0.76
		c-1.29,0-2.06,0.49-2.3,1.48c0.82,0.09,1.19,0.35,1.08,0.77l-0.1,0.4l-1.27,0l0.19-0.76l-1.19,0l0.41,0.77
		c-0.4,0-2.02,0.62-4.86,1.88l-0.67,0l0.09-0.36c-1.52,0.51-2.85,0.76-3.99,0.76l0.1-0.4l0.86-0.76c-1.09,0-2.1-0.26-3.02-0.77
		l-0.6,0l0.41,0.77c-1.49,1.65-2.76,2.54-3.79,2.69l-1.17-0.41l-1.14,1.93l1.37-0.4l1.27,0l-0.1,0.4c-0.52,0.48-0.8,0.85-0.87,1.12
		l-1.94,0l-0.23-1.53l-1.27,0c0.57,1.53,1.43,2.3,2.58,2.3l-0.1,0.4c-0.09,0.36-0.8,0.73-2.14,1.12l0.09-0.36l0.78-0.76l-0.6,0
		c-0.06,0.24-0.31,0.36-0.76,0.36c0.12-0.51-0.6-1.02-2.17-1.53l0.09-0.36l-1.27,0c-0.07,0.27-0.36,0.64-0.87,1.12
		c0.6,0,1.12,0.39,1.58,1.17l-0.09,0.36l-0.6,0l-1.18-0.36c-0.14,0.57-0.46,1.08-0.97,1.53l0.6,0c-0.51,0.48-0.8,0.85-0.87,1.12
		l-0.67,0l0.27-1.12l-0.6,0c-0.09,0.39-0.64,0.9-1.64,1.53c0.4,0,0.57,0.12,0.51,0.36l-1.27,0c-0.25,0-1.14-0.63-2.68-1.9
		l-0.46,1.89l1.27,0l-0.19,0.76l-1.17-0.41l-0.1,0.4c-0.48-0.27-1.52-0.41-3.11-0.41l-0.1,0.4l-1.17-0.41l-0.28,1.17l-0.6,0
		c0.12-0.51-0.6-1.02-2.17-1.53c0.25-1.02-0.28-1.53-1.57-1.53l0.9,1.53l-1.27,0l-0.23-1.53l-0.67,0l-0.1,0.4l0.49,0.77
		c-0.55,0.42-0.92,1.05-1.13,1.89l-0.6,0c0.07-0.27-0.06-0.66-0.39-1.17l0.85-0.72c-0.32-0.51-0.45-0.9-0.39-1.17l-2.05,0.76
		c0.12-0.51-0.24-0.77-1.08-0.77l-0.19,0.76l-0.67,0l-0.14-1.89l1.95-8.05c0.27-0.51,0.76-0.76,1.45-0.76l-0.19,0.76l0.6,0
		l0.19-0.76c-0.85,0-1.21-0.26-1.08-0.77l0.19-0.76c0.27-0.48,0.75-0.72,1.44-0.72l-0.41-0.77c1.24-1.65,1.91-2.66,2.01-3.05
		l1.18,0.36c-0.33-0.48-0.46-0.86-0.4-1.12c2.63-3.05,4.49-4.58,5.59-4.58l0.6,0l-0.41-0.77c3.58-3.29,6.72-4.93,9.41-4.93l0.1-0.4
		l-1.27,0c1.4-1.26,2.4-1.88,2.99-1.88L53.51,56l0.67,0l0.19-0.76l1.27,0L55.45,56l1.27,0c0.12-0.51,0.38-0.76,0.78-0.76
		c-0.28-0.51-0.38-0.9-0.31-1.17l0.09-0.36l0.6,0l-0.19,0.76l1.27,0l1.74-1.93l0.6,0l-0.28,1.17l1.27,0l0.28-1.17l0.67,0l-0.19,0.76
		l0.6,0c0.45,0,0.7-0.12,0.76-0.36l1.18,0.36l0.6,0l0.19-0.76l1.27,0l-0.19,0.76l0.67,0l0.19-0.76l1.68,0.77l0.09-0.36l-0.41-0.77
		l1.37-0.4l-0.19,0.76l0.6,0l0.09-0.36c-0.29-0.45-0.36-0.96-0.23-1.53l1.27,0l1.18,0.36l0.19-0.76l0.6,0l1.17,0.41l0.1-0.4
		l-1.68-0.77l-0.19,0.76l-0.67,0c-0.4,0-0.57-0.12-0.51-0.36l-2.72,0.76l-0.49-0.77c0.57-0.51,0.89-0.9,0.96-1.17l0.6,0l-0.19,0.76
		l1.36-0.36l-0.41-0.77l0.1-0.4l1.27,0l-0.19,0.76c0.4,0,0.63-0.12,0.68-0.36l2.35,0.77l0.86-0.76c-0.85,0-1.21-0.26-1.08-0.77
		L74.49,48l0.19-0.76c1.69,0,3.25-0.37,4.68-1.11l-0.09,0.36l1.36-0.36c0.79,0.24,1.41,0.36,1.85,0.36
		c0.06-0.24,0.29-0.36,0.69-0.36c-0.06,0.24,0.14,0.36,0.58,0.36l0.09-0.36l-0.49-0.77c5.82-1.01,9.1-1.51,9.85-1.51
		c-0.07,0.27,0.13,0.41,0.57,0.41C93.91,43.66,97.61,43.16,104.88,42.76z M89.29,73.22l1.17,0.41c0.07-0.27,0.3-0.4,0.69-0.4
		l-0.1,0.4c-0.06,0.24-0.29,0.36-0.68,0.36l0.9,1.53l-1.27,0l0.19-0.76c-0.3,0-1.53,0.64-3.68,1.93l0.49,0.77
		c-0.56,0.48-0.88,0.85-0.94,1.12l1.27,0c0.09-0.39,0.64-0.9,1.64-1.53l-1.27,0l0.09-0.36l1.94,0c1.69,0,2.58,0.63,2.68,1.9
		c-0.87,0.09-1.35,0.34-1.45,0.76l1.75,0.77c0.22-0.51,0.71-0.76,1.46-0.76c-0.07,0.27,0.1,0.41,0.5,0.41l0.37-1.53
		c1.63,0.24,2.36,0.76,2.17,1.53l1.37-0.4c3.74,0.16,5.51,0.67,5.3,1.54l0.67,0l0.19-0.76c5.75,0.7,8.56,1.35,8.41,1.95l-0.86,0.76
		l0.67,0c0.09-0.39,0.81-0.78,2.15-1.16c-0.07,0.27,0.13,0.41,0.57,0.41l0.1-0.4c1.82,0.51,3.65,0.77,5.49,0.78l-0.78,0.76l1.1,0.41
		c0.27-0.51,0.76-0.76,1.45-0.76l0.67,0l-1.64,1.53l-0.09,0.36l0.6,0l1.04-1.53l1.87,0c-0.07,0.27,0.06,0.66,0.39,1.17L125,85.18
		l-0.09,0.36l0.67,0l0.97-1.53c-0.4,0-0.57-0.12-0.51-0.36l0.6,0c0.35,0,0.9,0.38,1.67,1.13c0.85-0.24,1.5-0.36,1.95-0.36
		c0.33,0.48,0.46,0.86,0.4,1.13l0.6,0l0.19-0.76c18.51,5.59,26.49,13.63,23.95,24.12l-1.47,6.07c-0.44,1.8-1.5,2.7-3.19,2.69
		l-0.09,0.36l1.94,0c-2.24,5.33-9.42,11.43-21.53,18.31c-9.99,4.06-18.02,6.57-24.08,7.55c-10.81,2.28-20.99,3.42-30.54,3.39
		l0.1-0.4l-1.37,0.4l-3.21-0.01c-1.39,0-2.77-0.4-4.12-1.18l-1.27,0l0.99,1.17l-0.67,0c-20.56-1.25-32.62-2.8-36.2-4.67l0.93-3.82
		c0.06-0.24,0.29-0.36,0.68-0.36l-0.41-0.77l1.39-5.75c3.23,0.64,4.74,1.41,4.52,2.3l-0.19,0.76c-0.45,0-0.7,0.13-0.77,0.4l1.27,0
		c2.6-0.26,3.97-0.65,4.09-1.16l-0.49-0.77l-1.29,0.4l-0.67,0c-0.4,0-1.29-0.65-2.67-1.94c6.99-0.49,10.89-1,11.72-1.5
		c0.78,0.27,1.39,0.41,1.84,0.41c0.22-0.51,0.71-0.76,1.45-0.76c1.96,2.4,2.89,3.8,2.79,4.19l1.27,0l0.27-1.12
		c-1.59,0-2.42-1.03-2.47-3.06l7.8-0.75l0.19-0.76l-3.13-0.01c-1.54,0.6-3.55,0.97-6.02,1.11c-1.25-1.83-3.13-3.61-5.66-5.32
		l-0.67,0l-0.09,0.36l4.55,4.96l-1.37,0.4c-0.45,0-0.64-0.14-0.57-0.41c-1.12,0.51-4.57,0.89-10.36,1.15l3.6-1.93
		c-2.09,0-3.01-0.5-2.77-1.49l-1.27,0l0.14,1.89l-2.05,0.76l-0.49-0.77c0.45,0,0.71-0.13,0.77-0.4l-1.18-0.36
		c-0.56,0.48-0.88,0.85-0.94,1.12l-0.6,0l1.84-7.6c0.07-0.27,0.3-0.4,0.69-0.4l-0.41-0.77l0.64-2.65c0.65,0,1.55-0.25,2.72-0.76
		l0.41,0.77l-0.78,0.76l0.81,1.89c-0.91,0.27-1.59,0.4-2.04,0.4l-0.09,0.36c0.85,0,1.11,0.65,0.8,1.94l1.27,0
		c0.25-1.02,0.79-1.53,1.64-1.53c-0.06,0.24,0.14,0.36,0.58,0.36l0.09-0.36l-0.49-0.77l2.54,0.01c-0.33,1.38,0.5,2.26,2.49,2.66
		l0.09-0.36c-2.06-2.58-3.55-4.25-4.46-5c0.45,0,0.7-0.12,0.76-0.36c-0.98-0.06-2.23-1.08-3.74-3.07l-0.6,0l0.27-1.12l2.86,1.13
		l0.67,0c0.11-0.45,0.88-1.08,2.32-1.88c9.72,4.07,17.88,6.11,24.5,6.13l-0.1,0.4c-2.54-0.01-3.83,0.11-3.89,0.35l-0.78,0.76
		l1.17,0.41l5.37-1.52l3.81,0.01l-0.27,1.12l1.94,0l0.09-0.36l-0.49-0.77l5.07,0.01l-0.27,1.12l0.67,0l0.27-1.12
		c-0.45,0-0.64-0.14-0.57-0.41c6.56-0.97,10.15-2.74,10.76-5.28c0.05-0.21,0.04-0.97-0.04-2.29l1.87,0l0.1-0.4l-1.87,0
		c-0.07,0.27-0.3,0.4-0.7,0.4c-0.62-1.53-2.35-2.3-5.19-2.31l0.86-0.76l0.19-0.76c-0.45,0-1.06-0.14-1.84-0.41l-0.1,0.4l1,1.13
		l-2.54-0.01l-2.26-1.13l-0.6,0l-0.19,0.76l-11.65-1.56l0.78-0.76l0.1-0.4c-0.75,0-2.22-0.89-4.43-2.66l0.86-0.76l0.1-0.4l-0.67,0
		l-0.19,0.76c-0.65,0-1.87-1.01-3.67-3.02l-1.27,0l1.06-1.93l-0.41-0.77l2.54,0.01c0.06-0.24,0.29-0.36,0.68-0.36
		c-0.28-0.51-0.38-0.9-0.31-1.17c0.51-0.48,0.8-0.85,0.87-1.12l1.27,0l-1.64,1.53l1.18,0.36l0.19-0.76l1.27,0
		c0.6,0,1.15,0.39,1.66,1.17l-0.09,0.36c-0.45,0-1.13,0.13-2.04,0.4c0.33,0.48,0.46,0.86,0.4,1.13l0.6,0
		c0.18-0.75,0.69-1.12,1.54-1.12c-0.12,0.51,0.77,1.14,2.68,1.9l-0.1,0.4l1.94,0l-1.57-1.53l0.19-0.76l1.18,0.36l0.19-0.76
		l2.25,1.17l0.67,0c-1.12-1.53-2.01-2.3-2.65-2.3l-0.6,0c-0.25,1.02-0.79,1.53-1.64,1.53l-0.99-1.17l0.86-0.76l-1.27,0l0.78-0.76
		l-0.6,0c-0.07,0.27-0.32,0.4-0.77,0.4c0.17-0.69-1.44-1.85-4.83-3.47c-0.25,1.02-1.02,1.53-2.31,1.52
		c0.09-0.36-0.44-0.74-1.59-1.13l-0.19,0.76l-0.67,0l-0.8-1.94l-0.6,0l-0.19,0.76l-0.67,0c0.14-0.57,0.06-1.08-0.23-1.53l0.6,0
		l1.17,0.41c0.5-1.02,1.27-1.53,2.31-1.52l0.6,0l-0.37,1.53c-0.4,0-0.91,0.37-1.54,1.12l3.48-1.12c-0.06,0.24,0.11,0.36,0.51,0.36
		l0.46-1.89l-1.36,0.36l-0.6,0l0.09-0.36l0.78-0.76c-1.67-1.74-2.47-2.76-2.39-3.06l0.09-0.36l0.6,0c-0.18,0.75,0.15,1.12,1,1.13
		l0.67,0l-0.49-0.77l1.27,0l0.09-0.36l-0.41-0.77l0.6,0c0.83,0.06,1.19,0.32,1.08,0.77l-0.19,0.76l-1.27,0l-0.27,1.12l1.37-0.4
		l-0.28,1.17l0.67,0c0.19-0.78,0.71-1.17,1.55-1.17l-0.1,0.4l-0.86,0.76l0.67,0c0.94-1.02,1.91-1.52,2.91-1.52l0.09-0.36l-1.27,0
		c-0.06,0.24-0.31,0.36-0.76,0.36l0.09-0.36l0.86-0.76l0.1-0.4l-0.67,0l-0.97,1.53l-1.27,0c1.05-0.84,1.62-1.47,1.73-1.89
		l-1.36,0.36c-0.85,0-1.21-0.26-1.08-0.77l0.19-0.76l1.17,0.41l0.19-0.76l1.18,0.36l0.09-0.36c-0.45,0-0.64-0.14-0.57-0.41
		l1.36-0.36c0.03,0.51,0.39,0.76,1.08,0.77l1.37-0.4l-0.1,0.4c-0.5,0.42-0.82,0.93-0.97,1.53l1.37-0.4l-0.19,0.76l0.6,0l0.09-0.36
		c-0.27-0.51-0.38-0.9-0.31-1.17l1.17,0.41l0.1-0.4c-0.45,0-0.64-0.12-0.58-0.36l1.27,0c-0.07,0.27,0.07,0.65,0.4,1.13
		c-0.87,0.09-1.35,0.34-1.45,0.76l-0.1,0.4c1.77-0.54,2.84-1.55,3.2-3.05l-1.1-0.41l-0.19,0.76l-0.67,0l0.19-0.76l0.86-0.76
		l0.09-0.36l-0.67,0c-0.18,0.75-0.7,1.12-1.54,1.12c0.12-0.51-0.24-0.77-1.08-0.77l0.86-0.76c-1.29,0-1.88-0.26-1.75-0.77l0.19-0.76
		c0.09-0.39,1.06-0.9,2.91-1.52c-0.07,0.27,0.13,0.41,0.57,0.41c1.05-0.84,1.63-1.48,1.74-1.93l1.19,0l-0.28,1.17l1.37-0.4
		c-0.07,0.27,0.06,0.66,0.39,1.17c0.65,0,2.07-0.64,4.27-1.92l0.6,0c-0.14,0.57-0.04,1.08,0.3,1.53c-1.04,0-1.82,0.51-2.31,1.52
		l1.17,0.41l0.19-0.76l0.67,0l-0.19,0.76l0.6,0l0.1-0.4c-0.28-0.48-0.39-0.86-0.32-1.13c0.85,0,1.36-0.39,1.55-1.17l0.09-0.36
		l-0.67,0l-0.19,0.76l-0.6,0l0.28-1.17c0.4,0,0.63-0.12,0.68-0.36c-0.4,0-0.56-0.14-0.5-0.41C85.51,74.74,86.9,74.24,89.29,73.22z
		 M41.55,94.89l0.67,0l0.23,1.53c-0.87,0.09-1.35,0.34-1.45,0.76c-0.74-0.24-1.33-0.36-1.78-0.36l0.19-0.76l1.18,0.36L41.55,94.89z
		 M49.62,93.02l1.27,0l-0.78,0.76l0.41,0.77l-1.27,0l-0.27,1.12l1.27,0l-0.41-0.77l1.28-0.36l0.49,0.77l-5.63,2.28
		c-0.12,0.51-0.61,0.76-1.45,0.76c0.07-0.27-0.1-0.41-0.5-0.41l0.41,0.77l-0.1,0.4l-1.87,0c0.1-0.42-0.2-0.93-0.9-1.53l3.6-1.93
		l1.76,0.77l1.64-1.53l-1.27,0l0.19-0.76C48.72,94.14,49.44,93.76,49.62,93.02z M44.13,92.24l1.27,0L45.22,93l-0.86,0.76l0.67,0
		c0.07-0.27,0.3-0.4,0.69-0.4c-0.07,0.27,0.06,0.66,0.39,1.17l-3.39,0.76c0.07-0.27-0.1-0.4-0.5-0.41l2.42-2.29
		C44.24,92.6,44.07,92.48,44.13,92.24z M43.37,100.6l1.27,0c0.92,0.51,1.9,0.77,2.95,0.77l-0.1,0.4l-1.87,0
		C44.03,101.38,43.28,100.99,43.37,100.6z M45.63,114.73l-0.78,0.76l-0.18,0.76c1.24,0,1.8,0.26,1.68,0.77
		c-0.12,0.51-0.81,0.76-2.05,0.76l-0.28,1.17l4.5-0.4c0.27,0.51,0.38,0.9,0.31,1.17l1.27,0l0.37-1.53l-1.27,0l0.19-0.76l1.94,0
		c-0.15,1.02,0.57,1.53,2.17,1.53l0.78-0.76L45.63,114.73z M51.33,96.44l0.23,1.53l-0.1,0.4l-0.6,0l0.19-0.76l-1.27,0
		c-0.07,0.27-0.36,0.64-0.87,1.12l0.6,0c0.06-0.24,0.29-0.36,0.68-0.36l0.13,2.25l-1.69-0.72c-0.56,0.48-0.88,0.85-0.94,1.12l-0.6,0
		c0.3-1.26-0.19-1.89-1.48-1.89l-0.18,0.76l-1.27,0l0.1-0.4c1.85-0.66,2.82-1.16,2.91-1.52l1.17,0.41
		C49.4,97.2,50.4,96.56,51.33,96.44z M47.49,101.78c0.6,0,1.13,0.38,1.59,1.13l-1.87,0L47.49,101.78z M50.36,102.91
		c0.78,0.27,1.39,0.41,1.84,0.41l-0.09,0.36l-2.54-0.01L50.36,102.91z M52.11,103.68l1.27,0l-0.19,0.76
		C52.35,104.45,51.99,104.19,52.11,103.68z M52.83,85.02l1.27,0c-0.12,0.51-0.61,0.76-1.45,0.76L52.83,85.02z M54.62,101.03
		l0.21,1.89c-0.6,0-1.15-0.38-1.67-1.13C53.44,101.29,53.92,101.03,54.62,101.03z M54.98,83.85l1.27,0
		c-0.09,0.36-0.8,0.75-2.15,1.16l-0.49-0.77L54.98,83.85z M54.83,102.92l0.6,0c0.82,0.09,1.19,0.35,1.08,0.77l-1.87,0L54.83,102.92z
		 M54.85,118.58l-0.19,0.76c2.29,0.01,4.19,0.91,5.69,2.71l2.54,0.01l0.1-0.4c0.06-0.24-1.09-0.75-3.44-1.54
		c0.25-1.02-0.7-1.53-2.84-1.54L54.85,118.58z M55.92,54.07l0.6,0l-0.28,1.17l-0.6,0L55.92,54.07z M64.21,53.73l-0.86,0.76
		l-0.09,0.36l1.36-0.36l-0.19,0.76l-3.13-0.01l0.19-0.76l-0.67,0l-0.97,1.53l1.37-0.4l2.54,0.01l1.17,0.41
		c0.25-1.02,0.79-1.53,1.64-1.53l-0.09,0.36l-0.86,0.76c0.9-0.24,1.58-0.36,2.03-0.36l0.1-0.4l-1-1.13l-1.36,0.36L64.21,53.73z
		 M61.48,96.46l-0.19,0.76l-1.27,0C60.25,96.71,60.73,96.46,61.48,96.46z M63.39,93.81l0.6,0l1.18,0.36
		c-1.53,1.17-2.33,1.93-2.42,2.29l-1.27,0c0.17-0.69-0.3-1.46-1.38-2.3L63.39,93.81z M62.13,72.8l0.14,1.89l-0.28,1.17l-0.78,0.76
		l1.68,0.77l1.04-1.53c-0.85,0-1.21-0.26-1.08-0.77l0.1-0.4l1.17,0.41l0.6,0l1.04-1.53l-1.27,0l-0.19,0.76l-0.67,0l0.28-1.17
		c0.45,0,0.7-0.12,0.76-0.36l-0.67,0c-0.12,0.51-0.61,0.76-1.45,0.76l0.19-0.76L62.13,72.8z M61.92,70.91
		c0.4,1.02,0.92,1.53,1.57,1.53l1.37-0.4c-0.02,0.51,0.34,0.77,1.08,0.77c0.12-0.51,0.61-0.76,1.45-0.76l0.09-0.36
		c0.12-0.51-0.24-0.77-1.08-0.77c-0.18,0.75-0.7,1.12-1.54,1.12l0.27-1.12l-0.67,0l-0.27,1.12L61.92,70.91z M64.68,51.8l-0.19,0.76
		l-1.27,0C63.5,52.05,63.99,51.8,64.68,51.8z M63.96,128.14l-0.1,0.4l2.38,0.37c4.05-0.5,6.71-0.99,7.97-1.47
		c0.45,0,0.64,0.12,0.58,0.36l1.36-0.36c0.94,0,1.76,0.12,2.45,0.37l3.41-1.12l0.67,0l1.18,0.36c0.22-0.51,0.71-0.76,1.45-0.76
		l1.27,0c-0.25,1.02,0.05,1.53,0.9,1.53l0.6,0c-0.28-0.48-0.39-0.85-0.33-1.12l0.28-1.17l-1.18-0.36
		C84.39,125.92,76.75,126.91,63.96,128.14z M66.63,51.44l0.67,0c0.74,0.24,1.33,0.36,1.78,0.36c-0.12,0.51-0.61,0.76-1.45,0.76
		L66.63,51.44z M75.24,52.59c-0.12,0.51-1.65,0.76-4.59,0.75c-0.12,0.51,1.47,0.9,4.79,1.18l-0.19,0.76l-1.94,0l-0.09,0.36
		l3.21,0.01c0.18-0.75,0.69-1.12,1.54-1.12l0.1-0.4C77.24,54.12,76.29,53.61,75.24,52.59z M70.8,91.89
		c-0.31,1.29,0.65,2.57,2.88,3.83l0.37-1.53c-1.69,0-2.35-0.77-1.98-2.3L70.8,91.89z M77.44,77.42l-0.19,0.76l-0.6,0
		c-0.4,0-0.56-0.14-0.5-0.41c-0.91,0.27-1.59,0.4-2.04,0.4l-0.09,0.36l1.27,0l-0.1,0.4l-1.87,0l-0.19,0.76l1.37-0.4
		c-0.12,0.51,0.44,0.77,1.68,0.77l0.6,0l0.09-0.36l-1.19,0l0.19-0.76c0.45,0,1.1-0.13,1.96-0.4l0.99,1.17
		c-1.04,0-1.81,0.51-2.31,1.52c0.65,0,1.17,0.51,1.57,1.53c-0.56,0.48-0.88,0.85-0.94,1.12l1.17,0.41l-0.41-0.77l0.1-0.4l1.27,0
		l0.19-0.76l-1.27,0l0.97-1.53l0.27-1.12l0.67,0l0.1-0.4C79.47,78.21,78.55,77.58,77.44,77.42z M90.67,67.51
		c0.73,0.27,1.32,0.41,1.77,0.41l-0.19,0.76l-2.54-0.01C90.29,68.17,90.6,67.78,90.67,67.51z M90.8,119.06l-0.09,0.36
		c0.45,0,0.64,0.14,0.57,0.41c-0.86,0.06-1.34,0.31-1.45,0.76l0.6,0l2.13-0.76c-0.18,0.75,0.15,1.13,1,1.13l-0.86,0.76l-0.28,1.17
		l3.12,0.37l-0.19,0.76c-0.12,0.51-1.71,0.9-4.76,1.16l-0.09,0.36l2.54,0.01l3.3-0.35c-0.09,0.36,0.44,0.74,1.59,1.13l0.09-0.36
		l-0.41-0.77l1.37-0.4l1.87,0l1.17,0.41c0.15-0.6,1.51-0.99,4.09-1.16c0.06-0.24,0.31-0.36,0.76-0.36c2.54,0.01,3.68,0.52,3.44,1.54
		l1.87,0l0.1-0.4l-1-1.13l1.87,0l-0.19,0.76l1.27,0l0.19-0.76l-1.27,0l0.1-0.4l1.27,0l0.19-0.76l-7.64,0.39
		c0.06-0.27-0.13-0.41-0.57-0.41c-0.59,0.78-1.95,1.17-4.09,1.16l-0.6,0l-1.47-1.94l-2.54-0.01l-0.19,0.76
		c1.67,0.51,2.67,0.77,3.02,0.77c-0.09,0.36-0.83,0.75-2.22,1.16l-1.87,0c0.37-1.53-0.29-2.3-1.98-2.3l0.19-0.76l3.13,0.01
		l0.19-0.76c-0.4,0-0.63,0.12-0.68,0.36L90.8,119.06z M114.08,64.91l1,1.13l-0.47,1.93l-1.27,0l0.28-1.17l-0.6,0l-0.28,1.17
		c0.6,0,1.13,0.38,1.59,1.13l-0.28,1.17l-6.34-0.01l0.1-0.4c0.06-0.24,0.31-0.36,0.76-0.36c-0.34-0.45-0.44-0.96-0.3-1.53l-0.6,0
		l-0.27,1.12c0.4,0,0.56,0.14,0.5,0.41l-1.27,0c0.25-1.02-0.25-1.53-1.5-1.53l-0.86,0.76l-0.19,0.76l1.37-0.4l-0.19,0.76l1.36-0.36
		l-0.19,0.76l-1.27,0l-3.04-0.41l0.78-0.76l-1.11-0.36c-0.77,1.32-1.18,2.08-1.23,2.29l-1.17-0.41c-0.09,0.36-0.8,0.75-2.15,1.16
		l-0.67,0l0.19-0.76l-0.6,0c-0.49,2.01-1.8,3.01-3.94,3l-0.19,0.76l1.27,0l-0.19,0.76c-0.74-0.24-1.33-0.36-1.78-0.36l0.28-1.17
		l0.78-0.76c-0.85,0-1.21-0.24-1.09-0.72c0.09-0.39,0.83-0.78,2.22-1.17c-0.07,0.27,0.1,0.41,0.5,0.41l-0.78,0.76l-0.09,0.36l0.6,0
		l1.04-1.53c-0.45,0-0.64-0.12-0.58-0.36c0.84,0,1.33-0.25,1.45-0.76l1.18,0.36c0.14-0.57,1.88-1.58,5.22-3.05
		c-0.02,0.51,0.31,0.77,1.01,0.77l0.67,0l-0.49-0.77l0.09-0.36c0.09-0.36,1.51-1,4.27-1.92c-0.07,0.27,0.13,0.41,0.57,0.41
		c0.07-0.27,0.3-0.4,0.7-0.4c-0.19,0.78,0.36,1.17,1.66,1.17l0.6,0l-2.32,1.88l1.17,0.41l0.19-0.76l0.6,0l-0.27,1.12l1.36-0.36
		c-0.06,0.24,0.14,0.36,0.58,0.36c-0.64-0.84-0.88-1.61-0.71-2.29l0.6,0l-0.41-0.77l0.19-0.76
		C112.57,65.27,113.22,65.15,114.08,64.91z M105.78,57.24c-0.52,0.51-0.81,0.9-0.88,1.17l-0.27,1.12c-0.87,0.09-1.35,0.34-1.45,0.76
		l-0.09,0.36c0.45,0,0.7-0.12,0.76-0.36l1.11,0.36l0.67,0l0.09-0.36l-0.49-0.77l2.13-0.76c0.28,0.48,0.39,0.86,0.32,1.13l1.27,0
		c0.84,0,1.33-0.25,1.45-0.76c-1.84,0-3.16-0.64-3.95-1.9L105.78,57.24z M112.58,63.38c0.28,0.48,0.39,0.85,0.32,1.12l-0.1,0.4
		l-0.6,0l0.19-0.76l-0.67,0l-0.19,0.76c0.45,0,0.64,0.12,0.58,0.36c-0.85,0-1.33,0.25-1.45,0.76l-1.27,0l0.78-0.76l0.09-0.36
		l-0.41-0.77L112.58,63.38z M135.9,118.76c-2.97,1.16-8.04,2.05-15.21,2.67l-0.27,1.12c2.94-0.65,6.45-1.15,10.52-1.51
		c2.64-0.41,4-0.79,4.08-1.12l1.11,0.36c5.65-0.5,8.53-1,8.65-1.51l-3.81-0.01l-2.13,0.76C137.63,119.02,136.65,118.76,135.9,118.76
		z M126.37,63.77l1.27,0c0.64,0.84,0.94,1.35,0.9,1.53l0.67,0l0.19-0.76l0.6,0l-0.56,2.29l-0.6,0c0.18-0.75-0.38-1.13-1.67-1.13
		l-0.19,0.76c2.14,1.02,3.51,1.54,4.11,1.54c0.07-0.27,0.3-0.4,0.7-0.4l-0.19,0.76l0.67,0l0.19-0.76c-0.65,0-1.17-0.51-1.57-1.53
		c0.65,0,1.58-0.37,2.81-1.12c0.79,0.24,1.4,0.36,1.85,0.36l-0.19,0.76l-2.54-0.01l-0.86,0.76c0.84,0,1.21,0.26,1.08,0.77l0.67,0
		l0.19-0.76l0.6,0l-0.28,1.17c-1.04,0-1.79,0.51-2.24,1.52l-0.09,0.36l0.6,0l1.04-1.53c0.82,0.09,1.19,0.35,1.08,0.77l-3.58,1.52
		l0.19-0.76l-1.27,0l-0.28,1.17c0.85,0,1.21,0.26,1.08,0.77l1.37-0.4l0.21,1.89l-1.37,0.4l-0.67,0l0.86-0.76l0.09-0.36l-0.67,0
		l-0.17,0.72l-1.27,0l0.17-0.72l-0.6,0l-0.17,0.72c-0.93-0.48-1.94-0.72-3.03-0.73l0.1-0.4c0.85,0,1.3-0.12,1.36-0.36l-0.13-1.93
		l-0.67,0l-1.74,1.93l-3.04-0.41l0.64-2.65l2.17,1.53l0.6,0l0.19-0.76c-2.09,0-2.92-0.91-2.48-2.7l0.86-0.76l-0.67,0
		c0.59-1.02,1.14-1.53,1.64-1.53l1.87,0L126.37,63.77z M123.8,61.47l0.67,0l-0.28,1.17l-0.67,0L123.8,61.47z M128.26,45.82
		c0.94,0,1.41,0.65,1.4,1.94l-1.17-0.41l-0.1,0.4l1.68,0.77l0.19-0.76c0.65,0,1.2,0.38,1.67,1.13l-0.1,0.4
		c-0.85,0-1.39,0.51-1.64,1.53c0.4,0,0.54,0.26,0.41,0.77l1.37-0.4l-0.37,1.53l0.67,0c0.22-0.93,1.03-1.69,2.42-2.29
		c0.8,0,1.68,0.77,2.65,2.3c-0.45,0-1.13,0.13-2.04,0.4c-0.69-0.63-0.99-1.14-0.9-1.53l-0.6,0l-0.19,0.76l0.41,0.77
		c-0.51,0.48-0.8,0.85-0.87,1.12l-1.94,0c0.25-1.02-0.75-2.04-2.99-3.07c-0.12,0.51-0.41,0.76-0.86,0.76c0.4,1.02,0.9,1.53,1.5,1.53
		l0.19-0.76l0.67,0l-0.28,1.17l-1.36,0.36c0.12-0.51-0.24-0.77-1.08-0.77c0.32,0.51,0.45,0.9,0.39,1.17
		c-0.56,0.48-0.88,0.85-0.94,1.12c0.82,0.09,1.19,0.35,1.08,0.77l-0.1,0.4c-0.85,0-1.3,0.12-1.36,0.36c1,0.99,1.47,1.62,1.41,1.89
		l2.11-0.71l-0.09,0.36l1.36-0.36l1.27,0l-1.54,1.12l1.37-0.4l0.6,0l-0.1,0.4l-0.78,0.76l0.6,0c0.07-0.27,0.32-0.4,0.77-0.4
		l-0.1,0.4c-0.56,0.48-0.88,0.85-0.94,1.12c-1.8-0.15-3.12-0.79-3.95-1.9c-1.69,0-2.48-0.26-2.35-0.77l-1.36,0.36l0.27-1.12
		c0.06-0.24,0.31-0.36,0.76-0.36l-0.49-0.77c0.07-0.27,0.32-0.4,0.77-0.4l-0.21-1.89c0.05-0.21,0.46-0.97,1.23-2.29l-0.67,0
		c0.57-0.51,0.89-0.9,0.96-1.17c-0.33-0.48-0.46-0.86-0.4-1.13l0.67,0l-0.49-0.77l0.37-1.53L128.26,45.82z M124.55,61.11l1.87,0
		l-0.09,0.36l-1.87,0L124.55,61.11z M131.27,43.58c1.23,0.24,1.82,0.5,1.75,0.77l1.37-0.4l0.6,0l-0.1,0.4l-0.78,0.76
		c1.52-0.51,2.62-0.76,3.32-0.76l0.49,0.77l-0.09,0.36l-1.27,0c-0.12,0.51,0.86,0.77,2.95,0.77l-2.32,1.88l1.36-0.36
		c0.84,0,1.18,0.38,1,1.13l-0.1,0.4l-0.67,0l0.19-0.76l-0.6,0l-1.36,0.36c-0.35-0.42-0.42-1.05-0.21-1.89l-0.6,0
		c-0.03,0.12-0.38,0.63-1.04,1.53l-0.6,0l0.1-0.4l1.15-2.29l0.09-0.36l-1.27,0c0.33,0.48,0.46,0.86,0.4,1.13l-0.1,0.4l-0.67,0
		l0.19-0.76l-0.6,0l0.14,1.89l-0.28,1.17l-1.27,0l0.37-1.53l0.67,0c-0.97-1.53-1.86-2.3-2.65-2.3l-0.09,0.36
		c0.69,0.63,0.99,1.14,0.9,1.53l-0.1,0.4l-0.6,0c0.11-0.45-0.36-1.1-1.4-1.94C130.46,45.26,131.04,44.51,131.27,43.58z M133.02,57.3
		l-0.19,0.76l-1.27,0C131.84,57.56,132.32,57.3,133.02,57.3z M132.35,73.32c0.73,0.27,1.32,0.41,1.77,0.41l-0.27,1.12l-1.27,0
		l0.86-0.76l-0.67,0c-0.06,0.27-0.3,0.4-0.69,0.4l-0.49-0.77C132.03,73.72,132.28,73.59,132.35,73.32z M131.82,49.29
		c0.82,0.09,1.19,0.35,1.08,0.77l1.37-0.4l0.6,0l-0.19,0.76l-2.54-0.01C131.86,49.94,131.76,49.56,131.82,49.29z M138.28,64.56
		l0.99,1.17c-0.06,0.24-0.31,0.36-0.76,0.36c0.64,0.84,0.91,1.49,0.8,1.94c-0.52,0.48-0.8,0.85-0.87,1.12l-0.67,0l0.27-1.12
		c0.45,0,0.7-0.13,0.77-0.4l-1.27,0l-0.37,1.53c0.85,0,1.15,0.51,0.9,1.53c-0.85,0-1.18-0.38-1-1.13l-0.67,0l-1.24,2.65l-1.18-0.36
		l-0.67,0l-0.19,0.76l-0.6,0l0.1-0.4c1.31-1.92,1.98-2.93,2.01-3.05l0.6,0l-0.19,0.76l0.67,0l0.27-1.12l-0.67,0l0.86-0.76l0.28-1.17
		c0.4,0,0.91-0.37,1.54-1.12l0.1-0.4l-0.67,0l-0.19,0.76l-1.27,0l0.09-0.36C136.14,65.36,136.88,64.98,138.28,64.56z M132.83,58.07
		l1.27,0l-0.27,1.12l-1.27,0L132.83,58.07z M134.66,55.78c0.68,0.27,1.49,0.41,2.44,0.41c-0.51,0.48-0.8,0.85-0.87,1.12l-3.21-0.01
		l0.19-0.76C134.05,56.54,134.53,56.29,134.66,55.78z M136.71,63.03l-0.19,0.76l-1.27,0C135.53,63.28,136.01,63.02,136.71,63.03z
		 M136.47,74.5l1.27,0l-0.09,0.36c-0.12,0.51-0.61,0.76-1.45,0.76l-0.6,0C136.11,75.14,136.4,74.77,136.47,74.5z M136.52,63.79
		c0.82,0.09,1.18,0.35,1.08,0.77l-1.27,0L136.52,63.79z M138.17,49.31l0.6,0c-0.12,0.51,0.24,0.77,1.08,0.77l-0.19,0.76
		c-0.65,0-1.55,0.25-2.72,0.76l0.37-1.53C137.76,50.07,138.04,49.82,138.17,49.31z M138.2,72.61c0.83,0.06,1.2,0.3,1.09,0.72
		c-0.52,0.51-0.81,0.9-0.88,1.17l-0.67,0L138.2,72.61z M138.46,55.79l1.27,0c-0.06,0.27,0.06,0.66,0.39,1.17l-1.36,0.36
		L138.46,55.79z M139.52,69.92l1.27,0l-0.19,0.76l-1.27,0L139.52,69.92z M140.12,56.96l0.6,0l-0.27,1.12l-0.6,0L140.12,56.96z
		 M141.9,57.32l1.27,0c-0.12,0.51,0.24,0.77,1.08,0.77l-0.56,2.29c-0.06,0.24-0.29,0.36-0.68,0.36l0.41,0.77l-0.1,0.4l-1.68-0.77
		l-0.19,0.76l-1.27,0l0.1-0.4c0.51-0.48,0.8-0.85,0.87-1.12l1.18,0.36l1.04-1.53l0.09-0.36l-0.67,0l-0.19,0.76l-0.6,0
		C142.29,58.48,142.25,57.72,141.9,57.32z M140.6,70.68l0.6,0l-0.28,1.17l-0.6,0L140.6,70.68z M141.46,61.91l0.6,0l-0.27,1.12
		l-0.6,0L141.46,61.91z M142.27,55.8l1.27,0l-0.19,0.76l-1.27,0L142.27,55.8z M143.35,56.56l1.27,0c-0.12,0.51-0.61,0.76-1.45,0.76
		L143.35,56.56z"/>
	<path fill="#828282" d="M172.28,44.44l0.6,0c1.29,0,2.87,0.5,4.72,1.5l0.09-0.36c-0.6,0-1.13-0.38-1.59-1.13l55.08,0.12l-6.93,28.6
		l-1.27,0l-0.09,0.36c0.85,0,1.24,0.14,1.17,0.41c-0.06,0.24-0.29,0.36-0.68,0.36l0.13,1.94l-1.11,4.59l-2.54-0.01
		c-0.12,0.51,0.66,0.77,2.35,0.77l-9.89,40.82l-0.6,0l-0.2-1.93l0.86-0.76l-1.37,0.4l-0.67,0c0.11-0.45-0.82-1.86-2.78-4.23
		l0.19-0.76l1.27,0c-3.21-1.33-5.76-3.87-7.64-7.62c-1.63-1.08-3.72-3.76-6.27-8.02c-0.65,0-1.77-1.53-3.37-4.6
		c-2.07-2.55-3.45-3.83-4.15-3.83l-0.6,0l-0.09,0.36c2.68,3.1,5.57,6.93,8.64,11.49c1,0,2.39,2.05,4.19,6.13
		c0.83,0.06,1.19,0.32,1.08,0.77l-1.27,0l-1.68-0.77c-0.06,0.24-0.31,0.36-0.76,0.36l0.49,0.77l-0.1,0.4l-0.67,0
		c-0.85,0-1.17-0.39-0.99-1.17l-0.6,0l-1.37,0.4c-0.26-0.78-1.43-1.17-3.52-1.18l-1.27,0l-0.1,0.4c0.94,0,1.76,0.12,2.45,0.37
		c0.06-0.24,0.29-0.36,0.68-0.36l1.57,1.53c0.83,0.06,1.19,0.32,1.08,0.77c-0.56,0.48-0.88,0.85-0.94,1.12l1.17,0.41
		c0.27-0.51,0.76-0.76,1.45-0.76c0.33,0.48,0.47,0.86,0.4,1.13c-0.56,0.48-0.88,0.87-0.96,1.17l1.27,0c0.85,0,1.39-0.51,1.64-1.53
		l3.13,0.01c0.69,0.03,1.74,0.92,3.16,2.66c0.69,1.26,1.38,1.89,2.08,1.89c-0.07,0.27-0.3,0.4-0.69,0.4
		c0.85,2.04,1.65,3.06,2.39,3.06c0.45,0,0.64,0.12,0.58,0.36l-1.14,1.93l2.13-0.76c0.85,1.62,1.16,2.9,0.94,3.83l-0.83,3.42
		c-0.14,0.57-0.46,1.08-0.97,1.53c0.29,0.45,0.36,0.96,0.23,1.53l-3.13-0.01c1.85,0.99,2.65,2.02,2.39,3.06l-0.19,0.76
		c-1.19-0.24-2.57-1.52-4.15-3.83c0.45,0,0.7-0.13,0.77-0.4c-3.14-1-4.56-2.14-4.25-3.43c-0.45,0-2.48-1.15-6.11-3.43l-0.67,0
		c2.09,1.86,3.02,3.26,2.79,4.19c-0.87,0.09-1.35,0.34-1.45,0.76l-0.09,0.36l1.27,0l0.19-0.76l0.6,0c0.82,0.09,1.19,0.35,1.08,0.77
		c-0.85,0-1.65,0.76-2.42,2.29l-0.1,0.4l0.6,0c0.09-0.36,0.92-1.12,2.5-2.29c0.74,0.24,1.33,0.36,1.78,0.36l-0.19,0.76l-1.27,0
		l-0.1,0.4l0.49,0.77l1.37-0.4l0.6,0c0.7,0,1.36,0.77,1.98,2.3l1.27,0c-0.12,0.51-0.61,0.76-1.46,0.76
		c0.06-0.24-0.11-0.36-0.51-0.36c-0.12,0.51-0.61,0.76-1.45,0.76l-6.94-0.02c-0.85,0-1.21-0.26-1.08-0.77
		c-0.9,0.24-1.58,0.36-2.03,0.36c0.33,0.51,0.45,0.9,0.39,1.17c0.94,0,1.82-0.13,2.64-0.4l1.1,0.41c0.45,0,0.7-0.13,0.77-0.4
		l3.04,0.41l0.67,0c0.4,0,0.63-0.13,0.69-0.4c0.58,0.27,1.82,0.41,3.71,0.41l-0.19,0.76c-1.7,0.24-3.2,0.35-4.49,0.35l-0.19,0.76
		l7.61,0.02l-0.1,0.4c-4.54,2.9-6.91,4.8-7.13,5.7l-3.22,0.35l-49.41-0.11l0.56-2.29c0.18-0.75,0.47-1.12,0.87-1.12l-0.14-1.89
		l1.39-5.75l3.81,0.01l0.09-0.36l-3.81-0.01l14.98-61.82l3.13,0.01c-0.12,0.51-1.03,0.76-2.72,0.76l-0.09,0.36l3.81,0.01l0.17-0.72
		c3.63,0.85,5.33,1.74,5.1,2.67l1.87,0l0.1-0.4l-1.27,0l0.19-0.76l1.27,0l0.19-0.76c-1.98-0.06-3.5-1.58-4.57-4.55l-2.93-1.18
		l-0.1,0.4c0.99,1.26,1.39,2.28,1.2,3.06l-3.3,0.35l-1.87,0l1.48-6.11l0.6,0c0.58,1.08,0.85,1.73,0.8,1.94l0.67,0l0.28-1.17
		c-1.15,0-1.72-1.14-1.71-3.42L172.28,44.44z M155.37,127.22l-0.1,0.4c3.33,1.66,6.03,3.69,8.08,6.09l1.36-0.36l1.18,0.36l0.6,0
		l0.09-0.36c-1.29,0-2.74-1.03-4.33-3.07C161.54,130.29,159.25,129.27,155.37,127.22z M171.22,129.91
		c-0.19,0.78-1.13,1.17-2.82,1.16c0.07-0.27-0.1-0.41-0.5-0.41l-0.1,0.4c1.08,0.66,1.55,1.29,1.41,1.89l0.67,0l0.37-1.53l1.27,0
		c0.85,0,1.17,0.39,0.99,1.17l1.27,0c0.19-0.78,0.68-1.17,1.48-1.17l0.09-0.36c-2.49-0.01-3.64-0.4-3.45-1.18L171.22,129.91z
		 M171.86,135.26l-0.1,0.4l6.18,0.37c0.06-0.24,0.31-0.36,0.76-0.36c0.03,0.51,0.39,0.77,1.08,0.77c0.06-0.27,0.36-0.66,0.88-1.17
		c-2.19,0-4.05-0.13-5.59-0.37C174.33,135.15,173.25,135.27,171.86,135.26z M178.43,79.18l-0.19,0.76c1.76,1.14,3.02,2.93,3.78,5.36
		c-3.99,0.86-6.04,1.49-6.13,1.88l0.6,0c2.54,0.01,3.9-0.37,4.08-1.12l1.94,0c0.65,0,1.48,0.89,2.49,2.66l-1.73,1.89l-0.1,0.4
		l0.67,0c0.12-0.51,1.01-0.76,2.65-0.76l-0.09,0.36l0.67,0c0.84,0,1.33-0.25,1.45-0.76c-0.45,0-1.07-0.12-1.85-0.36
		c0.12-0.51,0.76-1.41,1.92-2.69l-1.27,0l-0.19,0.76l-1.27,0l0.04-2.65l0.78-0.76c-0.86,0.27-1.52,0.4-1.96,0.4
		c-3.03-1.48-4.38-2.89-4.05-4.24C180.78,79.95,180.03,79.57,178.43,79.18z M182.33,136.46l5.07,0.01l3.05,0.37l0.86-0.76
		l-1.18-0.36l-1.27,0c-0.95,0-1.82,0.12-2.62,0.35c-0.69-0.24-1.51-0.36-2.45-0.37C182.92,135.75,182.44,136.01,182.33,136.46z
		 M183.1,49.41l-0.09,0.36c3.12,1.09,4.6,1.99,4.42,2.71l0.67,0l0.28-1.17c-2.13-1.26-3.67-1.9-4.62-1.9L183.1,49.41z M192.91,82.27
		l-0.19,0.76l0.6,0c0.75,0,2.23-0.89,4.46-2.69c0.85,0,1.39-0.51,1.64-1.53C195.88,81.12,193.71,82.27,192.91,82.27z M207.29,140.7
		l0.6,0l-1.2,4.95l-0.6,0c-0.95,0-1.76-0.12-2.45-0.37c-0.8,0.24-1.68,0.36-2.62,0.35l-0.67,0L207.29,140.7z M212.67,76.56
		c-0.25,1.02-3.2,1.91-8.86,2.68L203.62,80c2.71-0.5,4.46-0.75,5.26-0.75c1.22,0.51,2.2,0.77,2.95,0.77l0.78-0.76l-1.87,0l0.1-0.4
		c0.1-0.42,1.49-0.93,4.18-1.52l0.09-0.36L212.67,76.56z M207.51,63.95l-0.1,0.4c1.73,1.08,2.95,2.11,3.66,3.07
		c1.24,0,1.84,0.12,1.78,0.36l-1.07,1.93l2.82-1.16l7.19,4.24l0.67,0l0.1-0.4c-4.44-2.44-6.64-3.84-6.6-4.2
		c1.17-0.51,2.27-0.76,3.32-0.76l0.1-0.4l-2.54-0.01c-0.07,0.27-0.3,0.4-0.7,0.4c0.07-0.27-0.06-0.66-0.39-1.17
		c0.99,0,1.96-0.51,2.91-1.52l0.19-0.76c-0.85,0-1.88,0.76-3.09,2.29l-1.27,0C213,66.26,210.67,65.49,207.51,63.95z M248.97,67.87
		l54.48,0.12l-0.37,1.53l-1.27,0l0.49,0.77c-7.81,6.13-13.48,10.32-17.01,12.56l0.19-0.76l-0.67,0l-0.1,0.4l0.49,0.77
		c-0.56,0.48-0.88,0.85-0.94,1.12l-1.18-0.36c-0.28,1.17-4.24,4.46-11.87,9.87l41.74,47.46l-1.27,0l-0.09,0.36
		c1.84,0,3.42,1.28,4.75,3.83l-1.36,0.36l-17.69-0.04c-0.45,0-0.64-0.12-0.58-0.36l-1.36,0.36l-17.69-0.04l-4.16-3.79l-0.67,0
		l-0.54,2.25l3.11,0.41l-0.09,0.36c-0.12,0.51-0.61,0.76-1.45,0.76l-1.27,0l0.27-1.12c-0.85,0-1.36,0.37-1.54,1.12l-5.75-0.01
		c-0.85,0-1.21-0.26-1.08-0.77l0.19-0.76l0.86-0.76l-1.18-0.36l-0.86,0.76l-0.19,0.76l1,1.13l-10.75-0.02l0.27-1.12
		c-0.3,0-1.01,0.37-2.14,1.12c-0.4,0-2.06-0.12-4.99-0.37c-0.06,0.24-0.31,0.36-0.76,0.36l-4.69-6.85c0.45,0,0.7-0.13,0.77-0.4
		c-1.24,0-1.8-0.26-1.68-0.77l0.19-0.76l1.1,0.41l2.54,0.01c1,0,1.87-0.13,2.64-0.4l1.94,0l0.78-0.76c-1.24,0-1.84-0.12-1.78-0.36
		c-3.96,0.5-6.75,0.75-8.39,0.75c0.1-0.42-0.2-0.93-0.9-1.53l0.1-0.4l2.54,0.01l0.09-0.36c-2.69-0.01-4.42-0.77-5.19-2.31
		c0.07-0.3-1.46-2.72-4.59-7.25c0.55,0,2.83-1.52,6.86-4.57l0.1-0.4l-0.67,0c-0.07,0.3-2.31,1.7-6.7,4.21l-0.67,0
		c0.11-0.45-0.16-1.1-0.8-1.94l1.94,0c0.12-0.51-0.24-0.77-1.08-0.77c-0.12,0.51-0.61,0.76-1.45,0.76c0.15-0.6-0.45-1.62-1.8-3.06
		c0.4,0,0.63-0.12,0.68-0.36c-1.49,0-3.22-2.42-5.19-7.25l4.44-18.34l1.27,0l0.19-0.76l-1-1.13l0.28-1.17
		c0.06-0.24,0.31-0.36,0.76-0.36l-0.49-0.77l1.11-4.59c0.14-0.57,0.49-1.08,1.04-1.53c-0.34-0.45-0.44-0.96-0.3-1.53l0.56-2.29
		c0.23-0.96,3.22-3.74,8.97-8.35c1.19,0,3.66-0.5,7.39-1.51C248.15,68.71,248.86,68.32,248.97,67.87z M228.4,113.66l-0.09,0.36
		l5.67,0.01l-0.27,1.12l1.27,0l0.17-0.72c0.12-0.51-0.44-0.77-1.68-0.77L228.4,113.66z M232.88,84.66c-2.58,2-3.93,3.26-4.05,3.77
		l-0.1,0.4l0.6,0c0.11-0.45,1.69-1.72,4.73-3.81l0.09-0.36L232.88,84.66z M234.78,79.31c-0.25,1.02,0.7,1.53,2.84,1.54l-0.19,0.76
		c-0.09,0.36-0.82,0.73-2.21,1.12l-1.87,0c-0.07,0.27-0.72,0.4-1.96,0.4l-0.09,0.36c0.45,0,1.04,0.14,1.77,0.41
		c0.07-0.27,0.3-0.4,0.69-0.4c0.03,0.51,0.39,0.77,1.08,0.77l0.67,0c1.86-1.53,3.09-2.29,3.69-2.29l0.3,1.53l1.36-0.36
		c4.5,2.8,7.54,4.2,9.14,4.2l0.1-0.4c0.12-0.48-2.37-1.62-7.46-3.44c-2.19-1.44-3.21-2.47-3.07-3.07l-0.6,0l-1.37,0.4
		C237.8,80.06,236.86,79.55,234.78,79.31z M237.33,102.98c1.62,1.95,2.39,3.09,2.31,3.42l0.67,0l0.27-1.12L237.33,102.98z
		 M242.03,67.85l5.67,0.01l-0.1,0.4c-1.9,0.03-3.91,0.53-6.04,1.52l-1.27,0C241.34,68.95,241.92,68.3,242.03,67.85z M240.91,106.4
		l-0.19,0.76c1.21,1.8,2.06,2.7,2.56,2.71c0.07-0.27,0.3-0.4,0.7-0.4C242.62,107.43,241.6,106.4,240.91,106.4z M246.85,113.3
		c-1.53,1.2-2.37,2.08-2.51,2.65c-0.3,0-1.21,0.25-2.72,0.76c-0.02,0.51,0.34,0.77,1.08,0.77c0.15-0.6,1.6-1.48,4.37-2.64l0.67,0
		l-1.13,1.89l-0.28,1.17l0.67,0c0.31-1.29,0.89-1.93,1.74-1.93l1.68,0.77l-0.78,0.76l-0.1,0.4c0.99,0,2.11,0.63,3.35,1.9l1.27,0
		l-4.64-4.6l0.09-0.36l1.27,0l0.09-0.36c-1.09,0-2.27-0.4-3.52-1.18L246.85,113.3z M244.97,139.25l-0.1,0.4l4.48,0.01l-0.18,0.76
		c0.6,0,1.31-0.39,2.15-1.16L244.97,139.25z M257.64,123.63c-0.25,1.02,1.44,3.69,5.08,8.02l-0.67,0l-3.53-1.13l-0.27,1.12
		c2.12,0.09,3.09,0.49,2.93,1.18c-0.65,0-1.38,0.37-2.21,1.12l0.67,0c1.24,0,1.96-0.37,2.14-1.12c0.45,0,1.36,0.63,2.75,1.9
		l-4.85,1.52l-0.6,0c-0.79-0.24-1.4-0.36-1.85-0.36l1.55-1.17l0.09-0.36l-0.6,0c-0.3,0-1.52,0.63-3.67,1.88l-1.87,0
		c-2.25-1.17-3.34-1.94-3.25-2.3l-1.27,0l-0.37,1.53l0.6,0l1.36-0.36c-0.07,0.3,0.98,1.19,3.16,2.66l-0.19,0.76l1.27,0
		c0.37-1.53,2.25-2.29,5.63-2.28l1.17,0.41l3.21,0.01c-0.07,0.27,0.04,0.65,0.32,1.13c-0.65,0-2.65,1.27-6,3.81l-0.1,0.4
		c0.9,0,1.9-0.64,3.01-1.93l1.94,0l-0.1,0.4l0.6,0c0.85,0,1.33-0.25,1.45-0.76l-1.87,0l0.1-0.4c0.08-0.33,1.28-0.96,3.59-1.88l0.6,0
		c-0.18,0.75,0.7,1.52,2.65,2.3c-0.45,0-0.7,0.12-0.76,0.36l2.93,1.18l0.19-0.76l5.08,0.01l0.18-0.76l-5.08-0.01
		c-2.02-0.52-2.87-1.42-2.56-2.71l0.19-0.76l3.81,0.01c1.64,1.02,2.59,1.54,2.84,1.54l0.09-0.36c2.41,0.52,3.56,1.03,3.44,1.54
		l1.37-0.4l1.17,0.41l0.6,0l0.1-0.4c-3.13-1.27-4.87-1.9-5.21-1.9l0.19-0.76l3.05,0.37c0.12-0.51,1.68-0.76,4.66-0.75
		c0.12-0.51-0.46-0.77-1.76-0.77l1.54-1.12l0.65-2.7c-0.7,0-1.76,0.9-3.19,2.69c0.33,0.48,0.46,0.86,0.4,1.13l-6.34-0.01l-0.28,1.17
		l-0.67,0c-0.78-0.48-2.58-0.88-5.39-1.18c1.66-1.71,2.59-2.98,2.79-3.82l-1.18-0.36c-0.68,1.77-1.94,2.65-3.78,2.65
		c-3.33-0.25-4.86-0.88-4.62-1.9c0.57-0.51,0.89-0.9,0.96-1.17l-0.67,0l-1.37,0.4c0.04-0.15-1.62-2.06-4.96-5.72l0.28-1.17
		L257.64,123.63z M258.76,106.08c-0.12,0.48-2.15,1.87-6.09,4.17l0.6,0c0.9-0.03,2.9-1.3,6-3.81l0.09-0.36L258.76,106.08z
		 M269.83,44.66l7.61,0.02l-0.09,0.36l-1.27,0l-0.37,1.53l0.6,0l1.73-1.89l7.61,0.02l-0.27,1.12l0.67,0l0.27-1.12l1.19,0
		c1.19,0,2.4,0.26,3.62,0.77l0.18-0.76l10.15,0.02c-1.65,2.52-3.23,3.77-4.72,3.77c0.06-0.24-0.11-0.36-0.51-0.36l3.28-3.05l-0.67,0
		c-4.45,3.56-6.99,5.34-7.64,5.34c0.12-0.51-0.24-0.77-1.08-0.77l-1.27,0c-0.14,0.57-0.46,1.08-0.97,1.53
		c1.82,0.48,2.75,1,2.76,1.54c-0.85,0-1.36,0.37-1.54,1.12l-16.42-0.04c-0.45,0-0.64-0.12-0.58-0.36l-1.36,0.36l-5.67-0.01
		l0.27-1.12l-0.67,0c-0.18,0.75-1.32,1.12-3.41,1.12l-2.54-0.01C264.4,48.47,268.1,45.43,269.83,44.66z M278.85,46.57
		c-3.87,3.86-5.86,6.01-5.97,6.46c2.29-1.25,3.71-1.88,4.26-1.88l-0.49-0.77l0.28-1.17c0.85,0,1.84-0.63,2.99-1.88l0.19-0.76
		L278.85,46.57z M289.69,140.52c0.03,0.51,0.39,0.77,1.08,0.77l4.5-0.4l3.11,0.41l0.78-0.76L289.69,140.52z M303.41,44.73
		l21.49,0.05c0.83,0.06,1.19,0.32,1.08,0.77l-0.09,0.36c-1.04,0-2.15,0.25-3.32,0.76l-1.27,0l0.27-1.12l-1.27,0
		c-0.36,1.5-2.04,2.24-5.02,2.24l-0.1,0.4l3.12,0.37l1.87,0l0.19-0.76c1.64,1.02,2.59,1.54,2.84,1.54l0.78-0.76
		c-0.85,0-1.21-0.26-1.08-0.77c0.75,0,2.36-0.5,4.85-1.52c0.85-0.24,1.51-0.36,1.95-0.35c1.27,0.51,2.48,0.77,3.62,0.77
		c-4.23,3.29-6.52,4.93-6.87,4.93l0.74-3.06l-1.27,0l-0.47,1.93l-1.27,0l0.19-0.76l-1.27,0c-0.07,0.27-0.38,0.64-0.94,1.12
		c1.69,0,2.29,1.02,1.8,3.06l-30.38-0.07c0.11-0.45-0.45-0.83-1.67-1.13c0.11-0.45,0.72-1.21,1.83-2.29
		c0.79,0.24,1.4,0.36,1.85,0.36l-1.55,1.17l-0.19,0.76l0.6,0c0.6,0,1.34-0.39,2.22-1.16l-0.67,0c2.2-1.49,3.84-3.02,4.92-4.58
		C302.22,46.98,303.05,46.23,303.41,44.73z M304.41,45.86l-0.27,1.12l0.41,0.77c-0.87,0.09-1.35,0.34-1.45,0.76l-0.1,0.4l1.57,1.53
		c2.25-0.26,4.04-0.77,5.37-1.52l1.27,0c0.09-0.36-0.86-0.75-2.85-1.18l0.19-0.76l-1.27,0l-0.19,0.76l-1.27,0l-0.81-1.89
		L304.41,45.86z"/>
	<path fill="#828282" d="M332.85,73.05c-0.06,0.24,0.14,0.36,0.58,0.36c0.06-0.24,0.29-0.36,0.68-0.36l-0.09,0.36
		c-0.51,0.48-0.8,0.85-0.87,1.12l-0.1,0.4l0.6,0l0.19-0.76l0.67,0c-0.05,1.02,0.45,1.53,1.5,1.53l1.37-0.4
		c-0.07,0.27,0.13,0.41,0.57,0.41l0.1-0.4l-0.49-0.77l2.9-1.48l2.54,0.01l-0.77,0.72l-0.1,0.4l0.6,0c0.18-0.75,0.69-1.12,1.54-1.12
		l0.67,0l-0.85,0.72l-0.1,0.4l0.67,0c0.18-0.75,1.32-1.12,3.41-1.12l27.84,0.06c0.45,0,0.64,0.12,0.58,0.36l1.36-0.36l0.6,0
		l3.12,0.37c0.06-0.24,0.29-0.36,0.68-0.36l-0.17,0.72l0.67,0l0.17-0.72l1.27,0l-0.09,0.36l-0.86,0.76l1.27,0l0.27-1.12l3.21,0.01
		c0.84,0,1.18,0.38,1,1.13l1.27,0l0.19-0.76l-1.27,0l0.09-0.36l1.87,0l0.5,0.72l-0.28,1.17c-0.14,0.57-0.48,1.08-1.04,1.53
		c0.33,0.48,0.46,0.86,0.4,1.13l-0.67,0l0.49,0.77l-0.1,0.4c-0.12,0.51-0.61,0.76-1.45,0.76l-0.67,0l0.86-0.76l0.19-0.76l-1.27,0
		l-1.36,0.36l0.27-1.12c-0.87,0.09-1.35,0.34-1.45,0.76l-0.09,0.36c0.84,0,1.57,0.51,2.17,1.53l2.44,0.41l-0.09,0.36
		c-0.06,0.27-0.32,0.4-0.77,0.4l0.49,0.77l-0.09,0.36c-0.07,0.27-0.32,0.4-0.77,0.4c0.33,0.48,0.46,0.86,0.4,1.12l-0.86,0.76
		l0.49,0.77L388,86.13c0.33,0.48,0.46,0.86,0.4,1.13l-1.18-0.36l-0.67,0l-0.09,0.36c1.29,0,1.78,0.65,1.47,1.94l-0.37,1.53l-0.67,0
		l-0.8-1.94l-1.37,0.4l0.19-0.76l-0.6,0l-1.13,1.89c0.45,0,0.64,0.14,0.57,0.41c-0.45,0-0.7,0.12-0.76,0.36l0.67,0
		c0.51-0.48,0.8-0.85,0.87-1.12l1.27,0c-0.09,0.39,0.43,0.9,1.57,1.53l-0.19,0.76l-1.17-0.41l0.41,0.77l-0.78,0.76l-0.1,0.4l0.6,0
		l0.19-0.76l0.67,0L386,97.19l-0.67,0c0.07-0.27-0.04-0.64-0.33-1.13c0.52-0.51,0.82-0.9,0.88-1.17l-1.27,0
		c-0.12,0.51-0.38,0.76-0.78,0.76c0.3,0.39,0.32,1.15,0.04,2.29l0.67,0l0.19-0.76l0.6,0l-0.28,1.17c-0.4,0-0.63,0.12-0.68,0.36
		l0.6,0c0.06-0.24,0.31-0.36,0.76-0.36l-0.27,1.12c-0.14,0.57-0.49,1.08-1.04,1.53c0.34,0.45,0.44,0.96,0.3,1.53l-0.19,0.76
		l-2.91,1.52l0.6,0c0.91-0.27,1.59-0.4,2.04-0.4l-0.28,1.17c-0.12,0.51-0.61,0.76-1.45,0.76c0.94,1.26,1.31,2.28,1.13,3.06
		l-0.19,0.76c-0.85,0-1.36,0.37-1.54,1.12l-0.6,0l0.27-1.12l-1.27,0l-1.13,1.89l0.67,0l-0.86,0.76l-0.1,0.4
		c0.85,0,1.36-0.39,1.55-1.17l1.27,0l-0.78,0.76l-0.19,0.76l2.05-0.76l-0.1,0.4l-0.78,0.76l0.6,0l0.1-0.4l1.17,0.41l0.67,0
		l-0.49-0.77l0.1-0.4c1.69,0.63,2.74,1.52,3.16,2.66c-0.52,0.51-0.81,0.9-0.88,1.17l1.68,0.77l0.19-0.76
		c-0.85,0-1.24-0.14-1.17-0.41c0.56-0.48,0.88-0.85,0.94-1.12c-0.45,0-0.64-0.12-0.58-0.36l0.67,0c1.23,0.48,2.41,0.73,3.56,0.73
		l-0.78,0.76l-0.1,0.4l0.6,0l0.19-0.76l1.27,0c-0.06,0.24-0.29,0.36-0.69,0.36l0.41,0.77l-1.76,7.28c-0.06,0.24-0.29,0.36-0.69,0.36
		l0.41,0.77l-1.57,6.47l-1.18-0.36l-1.05,1.89l0.6,0l-0.78,0.76l-0.1,0.4l0.6,0l0.19-0.76l1.27,0l-1.2,4.95l-0.6,0
		c0.18-0.75-0.15-1.12-1-1.13l-1.54,1.12c0.65,0,1.51,0.77,2.58,2.3l-0.37,1.53c-0.06,0.24-0.29,0.36-0.68,0.36l0.41,0.77
		l-0.19,0.76l-1.27,0c0.09-0.39-0.24-0.77-1-1.13l-1.36,0.36l-1.87,0l0.19-0.76l1.17,0.41c0.84,0,1.33-0.25,1.45-0.76
		c-0.95,0-1.41-0.63-1.41-1.89l-0.67,0l-0.19,0.76c0.45,0,0.64,0.12,0.58,0.36l-1.37,0.4c0.25-1.02-0.28-1.53-1.57-1.53l-0.19,0.76
		l-0.6,0c-0.43-1.53-1.51-2.3-3.25-2.3l-0.19,0.76l-0.67,0l0.19-0.76l-1.27,0l0.49,0.77c-0.95,0-1.82,0.11-2.62,0.35
		c0.06-0.24-0.14-0.36-0.58-0.36l-0.27,1.12l-0.6,0c0.07-0.27-0.07-0.65-0.4-1.12c0.84,0,1.33-0.25,1.45-0.76l0.1-0.4
		c-0.85,0-1.36,0.39-1.55,1.17l-1.17-0.41l-0.19,0.76l-1.18-0.36c-1.72,0.12-2.66,0.49-2.81,1.12c-0.85,0-1.18-0.38-1-1.13l-0.6,0
		l-0.09,0.36c-0.05,1.02,0.45,1.53,1.5,1.53l-0.1,0.4l-0.77,0.72l0.6,0l0.85-0.72l0.1-0.4l-0.49-0.77l0.67,0l2.25,1.17
		c-0.32-0.51-0.45-0.9-0.39-1.17l0.09-0.36l0.67,0l0.14,1.89c-0.6,0-1.57,0.51-2.91,1.52l-1.17-0.41l-0.78,0.76l0.6,0
		c0.06-0.24,0.31-0.36,0.76-0.36l0.41,0.77c-0.87,0.09-1.35,0.34-1.45,0.76l1.27,0l0.19-0.76l0.67,0l-0.27,1.12l0.6,0l0.37-1.53
		c-0.4,0-0.57-0.12-0.51-0.36l1.27,0l-0.19,0.76l0.6,0l0.19-0.76l1.27,0l-1.15,2.29c-4.53-0.01-7.95-0.66-10.28-1.96
		c0.12-0.51-0.24-0.77-1.08-0.77c-0.87,0.09-1.35,0.34-1.45,0.76c-1.62-0.51-2.83-0.77-3.62-0.77l0.09-0.36l2.32-1.88
		c-0.27-0.51-0.38-0.9-0.31-1.17l1.36-0.36l-0.27,1.12l0.6,0l0.27-1.12l1.27,0l-0.09,0.36c-0.52,0.51-0.81,0.9-0.88,1.17l1.37-0.4
		l0.6,0c-0.25,1.02,0.67,1.53,2.76,1.54l0.19-0.76c-1.49,0-2.58-0.64-3.27-1.9l-0.67,0l0.86-0.76l0.1-0.4l-0.67,0l-0.19,0.76l-0.6,0
		l0.19-0.76l-0.67,0c-0.75,0-1.98,0.76-3.69,2.29l-0.67,0l-0.19,0.76l1.27,0l-0.19,0.76l-1.18-0.36l-2.04,0.71l0.27-1.12l-0.67,0
		l-0.19,0.76c-1.63-0.24-2.36-0.76-2.17-1.53l-1.37,0.4l-0.6,0l0.78-0.76l0.1-0.4l-0.6,0l-0.19,0.76c-3.09-1-5.52-2.28-7.28-3.84
		c-1.15,0-2.45-0.77-3.92-2.3l-0.6,0l0.27-1.12l0.6,0l-0.19,0.76c0.85,0,1.33-0.25,1.45-0.76l-2.35-0.77l-0.19,0.76l-0.6,0
		c0.12-0.51-0.04-0.76-0.49-0.77l0.86-0.76l0.1-0.4l-0.67,0l-0.19,0.76c-0.86-0.75-1.62-1.13-2.27-1.13l0.19-0.76l0.67,0l1.18,0.36
		l1.06-1.89l-1.27,0l0.49,0.77l-0.09,0.36l-1.18-0.36l-1.36,0.36c-1.25-1.23-2.37-2.75-3.38-4.55l1.37-0.4
		c-0.07,0.27,0.13,0.41,0.57,0.41l0.1-0.4c0.09-0.36-0.47-0.74-1.67-1.13l-0.19,0.76c-1.92-1.92-3.02-6.12-3.29-12.6l0.86-0.76
		c-0.56-1.17-0.58-2.84-0.06-4.99l1.57-6.47c0.06-0.24,0.29-0.36,0.68-0.36l-0.41-0.77l1.95-8.05c0.06-0.24,0.29-0.36,0.69-0.36
		l-0.41-0.77l0.28-1.17l1.17,0.41l1.27,0l0.1-0.4l-0.49-0.77l-1.37,0.4l-0.6,0l0.28-1.17c0.06-0.24,0.29-0.36,0.69-0.36l-0.41-0.77
		l1.2-4.95c0.06-0.27,0.3-0.4,0.7-0.4l-0.41-0.77l0.46-1.89c0.07-0.27,0.3-0.4,0.7-0.4l-0.41-0.77l0.64-2.65
		C329.58,73.6,330.72,73.23,332.85,73.05z M328.39,96.7l-0.97,1.53c0.17,1.77,0.8,2.66,1.89,2.66l0.09-0.36l-0.67,0l0.86-0.76
		l-1.57-1.53l0.19-0.76l1.94,0c0.12-0.51-0.24-0.77-1.08-0.77L328.39,96.7z M335.22,118.45c-0.12,0.51-1.88,0.76-5.26,0.75l-0.1,0.4
		c1.24,0,1.8,0.26,1.68,0.77c-0.4,0-0.63,0.12-0.68,0.36l2.95,0.77c0.89-1.02,1.66-1.53,2.31-1.52l1.68,0.77
		c0.84,0,1.33-0.25,1.45-0.76c-0.85,0-1.21-0.26-1.08-0.77l1.54-1.12l-0.6,0c-0.9,0.24-1.58,0.36-2.03,0.35L335.22,118.45z
		 M330.7,108.14c0.98,0.45,2.71,3.01,5.16,7.66l-0.09,0.36l-3.21-0.01c0.32,0.51,0.45,0.9,0.39,1.17l2.05-0.76
		c0.79,0.24,1.41,0.36,1.85,0.36c1.09,0,2.29-0.62,3.59-1.88l-1.87,0l-0.27,1.12l-1.27,0c0.14-0.57,0.46-1.06,0.96-1.48l0.1-0.4
		l-0.6,0l-0.19,0.76l-0.67,0c-0.3-1.86-0.83-3.14-1.61-3.83l0.67,0c-1.31-1.59-1.91-2.61-1.8-3.06l-0.67,0
		c-0.4,0-0.63,0.13-0.69,0.4l-1.17-0.41L330.7,108.14z M336.56,44.81l5.08,0.01l4.22,0.77c0.06-0.27,0.32-0.4,0.77-0.4l0.41,0.77
		c-0.87,0.09-1.35,0.34-1.45,0.76c0.45,0,0.64,0.12,0.58,0.36l-1.27,0c0.24-0.99-0.29-1.49-1.58-1.49
		c-0.09,0.39-0.61,0.76-1.54,1.12c0.33,0.48,0.46,0.86,0.4,1.13l-1.18-0.36l-0.09,0.36l1.68,0.77l0.19-0.76l0.67,0
		c-0.19,0.78,0.56,1.17,2.25,1.17c0.07-0.27,0.3-0.4,0.69-0.4c-0.07,0.27,0.13,0.41,0.57,0.41l0.19-0.76l1.18,0.36l0.6,0l0.37-1.53
		l-1-1.13l1.94,0l0.19-0.76l-3.81-0.01l0.09-0.36l12.69,0.03l-0.18,0.76l0.6,0l0.18-0.76l7.61,0.02l-0.09,0.36
		c-1.05,0.84-1.62,1.47-1.73,1.89l2.95,0.77l0.86-0.76l-3.12-0.37c1-0.63,1.57-1.26,1.73-1.89l0.67,0l1.68,0.77
		c0.06-0.27,0.32-0.4,0.77-0.4c-0.07,0.27,0.1,0.41,0.5,0.41l0.1-0.4c-0.4,0-0.57-0.12-0.51-0.36l3.13,0.01l1.76,0.77l0.1-0.4
		c-0.45,0-0.64-0.12-0.58-0.36l1.94,0l-0.09,0.36l-0.86,0.76c0.33,0.48,0.46,0.86,0.4,1.13l0.6,0l2.3-1.48l0.6,0l-0.17,0.72l0.67,0
		c0.04-0.15,0.55-0.64,1.55-1.48l1.27,0l-0.18,0.76l0.67,0l0.18-0.76l3.13,0.01l-0.18,0.76l-1.17-0.41l-0.1,0.4l1.18,0.36
		c0.56-0.48,0.88-0.85,0.94-1.12l0.6,0c-0.13,1.77,0.3,2.65,1.3,2.66l0.6,0l-0.41-0.77l1.87,0l0.19-0.76
		c-0.45,0-1.04-0.12-1.78-0.36c-0.06,0.24-0.31,0.36-0.76,0.36l0.09-0.36c0.27-0.51,0.76-0.76,1.45-0.76l0.67,0l-0.18,0.76l1.27,0
		l0.18-0.76l0.6,0l-0.18,0.76l1.37-0.4l-0.1,0.4l-0.77,0.72l0.6,0c0.06-0.24,0.31-0.36,0.76-0.36c-0.25,1.02,0.48,1.53,2.17,1.53
		l-1.67,6.88l-8.41-1.95c0.12-0.51-0.04-0.76-0.49-0.77L388.3,51l0.09-0.36c0.12-0.51-0.24-0.77-1.08-0.77l-0.09,0.36l0.41,0.77
		c-0.51,0.45-0.83,0.96-0.97,1.53c-1.77-1.53-4.55-2.3-8.33-2.31c0.06-0.24-0.11-0.36-0.51-0.36l-0.67,0l-0.09,0.36
		c1.66,0.15,2.41,0.55,2.25,1.18l-3.13-0.01l0.14,1.89l-0.1,0.4l-1.91,2.65l1.17,0.41c0.85,0,1.33-0.25,1.45-0.76l0.1-0.4
		c0.06-0.24-0.11-0.36-0.51-0.36c1.16-1.29,1.94-1.93,2.33-1.93c2.93,0.01,4.34,0.27,4.22,0.77l3.39-0.76
		c0.4,1.02,0.9,1.53,1.49,1.53l0.27-1.12l0.67,0c-0.12,0.51,0.01,0.76,0.41,0.77l-1.83,2.29l0.67,0c1.4-1.26,2.4-1.9,3.01-1.93
		l1.17,0.41c0.07-0.27,0.3-0.4,0.69-0.4c-0.12,0.51,0.04,0.77,0.49,0.77c0.85-0.24,1.5-0.36,1.95-0.36l-0.78,0.76
		c0.83,0.06,1.19,0.32,1.08,0.77l-0.67,0l0.49,0.77l-0.37,1.53c-0.45,0-0.64-0.14-0.57-0.41l-1.37,0.4l-3.13-0.01l0.28-1.17l-1.27,0
		c-0.19,0.78-0.93,1.17-2.22,1.16l0.1-0.4l-1.37,0.4l-2.54-0.01c-0.4,0-0.56-0.14-0.5-0.41l-1.37,0.4l-5.67-0.01l0.28-1.17l-0.67,0
		l-0.28,1.17L367.32,59c-0.4,0-0.56-0.14-0.5-0.41l-1.37,0.4l-3.81-0.01l0.19-0.76l-1.27,0l0.41,0.77l-2.54-0.01l0.19-0.76l-1.27,0
		l-0.19,0.76l-2.46-0.01l0.28-1.17l-1.27,0l0.41,0.77l-0.1,0.4l-5.08-0.01c0.25-1.02-0.25-1.53-1.5-1.53l-1.04,1.53l-5.08-0.01
		c-0.85,0-1.17-0.39-0.99-1.17l0.09-0.36l0.67,0l-0.19,0.76l1.27,0c0.09-0.39-0.46-0.78-1.66-1.17c-1.05,0.84-1.63,1.48-1.74,1.93
		l-1.87,0c0.11-0.45-0.13-1.21-0.71-2.3l0.78-0.76l0.19-0.76l-0.6,0c-0.77,1.32-1.18,2.08-1.23,2.29l-0.6,0l0.19-0.76l-0.67,0
		l-0.19,0.76l-0.6,0L336.56,44.81z M337.93,73.06l1.27,0l-0.09,0.36c-0.85,0-1.33,0.25-1.45,0.76l-0.6,0
		c-0.45,0-0.64-0.14-0.57-0.41l-1.37,0.4l-0.6,0l0.19-0.76L337.93,73.06z M346.51,50.9l-1.04,1.53l-0.6,0l0.27-1.12l-1.36,0.36
		c0.06-0.24-0.14-0.36-0.58-0.36l-0.09,0.36l0.49,0.77l-0.67,0l-1.18-0.36c0.33,0.48,0.47,0.86,0.4,1.13l-0.1,0.4l-0.67,0l0.19-0.76
		l-0.6,0c-0.18,0.75-0.7,1.12-1.54,1.12l-0.67,0l-1.68-0.77l-0.28,1.17l-0.67,0l-1.17-0.41c0.32,0.51,0.45,0.9,0.39,1.17l2.05-0.76
		l2.54,0.01c-0.18,0.75,0.15,1.13,1,1.13l0.67,0l0.09-0.36c0.07-0.27-0.13-0.41-0.57-0.41c0.37-0.69,1.56-1.2,3.58-1.52
		c0.66,0.78,0.86,1.68,0.61,2.7l0.6,0l1.14-1.93l0.19-0.76l-1.94,0l0.09-0.36l1.27,0l0.47-1.93L346.51,50.9z M338.56,133.35
		c-0.31,1.29-1.09,1.93-2.33,1.93l-0.09,0.36c-0.09,0.36,0.44,0.75,1.58,1.17c0.06-0.27,0.36-0.66,0.88-1.17
		c-0.28-0.48-0.39-0.85-0.33-1.12c0.85,0,1.33-0.25,1.45-0.76L338.56,133.35z M340.91,76.49l-0.56,2.29
		c-0.06,0.24-0.29,0.36-0.68,0.36c0.27,0.51,0.38,0.9,0.31,1.17l1.27,0l0.19-0.76l1.18,0.36c-0.16-0.99-0.57-1.88-1.22-2.66
		l1.55-1.17C342.03,76.36,341.35,76.49,340.91,76.49z M346.35,132.6l-0.1,0.4c0.28,0.48,0.39,0.86,0.33,1.13l0.67,0
		c0.4,0,0.63-0.12,0.68-0.36c1.63,0.24,2.29,1.01,1.98,2.3l1.27,0l0.28-1.17l-1.37,0.4c0.33-1.38-0.75-2.15-3.25-2.3l0.1-0.4
		L346.35,132.6z M347.03,45.96l0.67,0l-0.27,1.12l-0.67,0L347.03,45.96z M360.37,100.96l-0.09,0.36l0.41,0.77l-0.78,0.76
		c-0.19,0.78,0.34,1.17,1.58,1.17l-0.19,0.76l-0.6,0l-1.17-0.41l-0.86,0.76c-0.07,0.27,0.13,0.4,0.57,0.41
		c-0.31,1.26-1.3,1.89-2.99,1.88l1.5,1.53l-0.1,0.4c-2.29,2.45-3.47,3.85-3.55,4.18l-1.18-0.36l-0.19,0.76
		c-0.06,0.24,0.14,0.36,0.58,0.36l-0.86,0.76c0.33,0.48,0.46,0.86,0.4,1.13l0.6,0c0.25-1.02,1.4-2.28,3.45-3.77
		c0.16-0.66,0.74-1.3,1.74-1.93c-0.4,0-0.57-0.12-0.51-0.36c0.85,0,1.36-0.39,1.55-1.17c0.73,0.27,1.32,0.41,1.77,0.41l-0.27,1.12
		c-0.12,0.51-1.03,0.76-2.72,0.76l-0.28,1.17l0.67,0l0.19-0.76l1.27,0l1.18,0.36c0.16-0.66,1.95-1.17,5.37-1.52l0.09-0.36
		c0.12-0.51-0.21-0.77-1.01-0.77l-0.67,0l-2.81,1.12l-0.41-0.77l0.6,0l-0.41-0.77l0.19-0.76c0.85,0,1.3-0.12,1.36-0.36
		c-0.32-0.51-0.45-0.9-0.39-1.17l0.67,0c-0.39-0.24-0.44-1.77-0.16-4.59c0.51-0.48,0.8-0.85,0.87-1.12c-0.4,0-0.63,0.12-0.68,0.36
		l-1.18-0.36l-0.67,0l1,1.13l-0.19,0.76l-1.18-0.36l-0.27,1.12l-1.18-0.36c0.57-0.51,0.89-0.9,0.95-1.17
		c-0.33-0.48-0.46-0.86-0.4-1.13L360.37,100.96z M354.92,52.86l0.41,0.77c-0.18,0.75-0.9,1.12-2.14,1.12l-0.28,1.17l1.27,0
		l-0.09,0.36l-1.27,0l-0.1,0.4l1.87,0c0.07-0.27,0.32-0.4,0.77-0.4l-0.28,1.17l0.6,0c0.25-1.02,0.99-1.53,2.24-1.52
		c-0.18,0.75,0.37,1.12,1.67,1.13l0.19-0.76l-0.21-1.89c0.45,0,0.7-0.13,0.77-0.4l-0.67,0c-0.07,0.27-0.3,0.4-0.7,0.4l-0.49-0.77
		l-1.28,0.36l-0.67,0C356.69,53.24,356.16,52.86,354.92,52.86z M354.31,128.43c-0.07,0.27-0.36,0.64-0.87,1.12l-0.1,0.4l0.6,0
		l0.19-0.76l0.67,0c-0.25,1.02,0.67,1.53,2.76,1.54l1.27,0l0.1-0.4c-0.6,0-1.52-0.51-2.76-1.54l-1.37,0.4l0.19-0.76L354.31,128.43z
		 M362.2,106.32l-1.15,2.29l-1.17-0.41l-0.19,0.76l-0.67,0l0.27-1.12C359.4,107.42,360.37,106.91,362.2,106.32z M367.73,88.74
		c-0.25,1.02-0.79,1.53-1.64,1.53c0.09-0.36-0.45-0.74-1.59-1.13l-0.27,1.12l-0.67,0l0.27-1.12c-0.85,0-1.36,0.37-1.54,1.12
		l-1.18-0.36l-0.09,0.36c0.85,0,1.15,0.51,0.9,1.53l0.67,0l0.27-1.12c-0.45,0-0.64-0.14-0.57-0.41l1.27,0l-0.19,0.76l1.27,0
		l0.19-0.76l0.67,0l-0.19,0.76l1.36-0.36l-0.27,1.12l1.27,0c0.18-0.75,0.47-1.12,0.87-1.12c-0.3-0.42-0.34-1.06-0.13-1.93
		L367.73,88.74z M361.03,48.28c1.53,0.66,2.25,1.17,2.17,1.53l0.67,0c0.4,0,0.63-0.13,0.69-0.4l2.35,0.77
		c1.29,0,2.03-0.37,2.21-1.12l1.18,0.36l0.09-0.36l-1.17-0.41c-0.12,0.51-0.61,0.76-1.45,0.76
		C364.08,48.67,361.83,48.28,361.03,48.28z M363.35,104.39l-0.1,0.4c-0.56,0.48-0.88,0.85-0.94,1.12l-1.27,0l0.27-1.12
		C361.75,104.79,362.43,104.65,363.35,104.39z M369.3,131.88c0.32,0.51,0.45,0.9,0.39,1.17l-0.09,0.36l-0.67,0l0.19-0.76l-1.27,0
		l-0.97,1.53l-1.27,0c0.25-1.02-0.28-1.53-1.57-1.53c-0.07,0.27-0.36,0.66-0.88,1.17l0.6,0c0.07-0.27,0.32-0.4,0.77-0.4l-0.37,1.53
		l0.6,0l0.19-0.76l0.67,0c-0.12,0.51,0.24,0.77,1.08,0.77l-0.1,0.4l-1.27,0l-0.27,1.12l1.27,0l-0.19,0.76l-1.18-0.36l-0.67,0
		l-0.09,0.36c0.85,0,1.21,0.26,1.08,0.77l0.67,0c0.07-0.27,0.35-0.64,0.87-1.12c-0.29-0.45-0.36-0.96-0.23-1.53l0.6,0l-0.41-0.77
		l0.1-0.4c0.85,0,1.33-0.25,1.45-0.76c0.73,0.27,1.32,0.41,1.77,0.41l-0.19,0.76l-2.24,1.52l-0.19,0.76l2.26,1.13
		c-0.07,0.27,0.1,0.4,0.5,0.41l-0.41-0.77l0.1-0.4l1.68,0.77l0.09-0.36c-0.27-0.51-0.38-0.9-0.31-1.17l1.17,0.41
		c0.21-0.87,0.56-1.51,1.06-1.93c-0.75,0-1.28-0.38-1.59-1.13l0.78-0.76l0.1-0.4c-1.24,0-1.96,0.38-2.15,1.16l-0.67,0l0.47-1.93
		L369.3,131.88z M363.54,74.6l0.49,0.77l1.36-0.36c0.82,0.09,1.19,0.35,1.08,0.77l-0.09,0.36l-0.86,0.76l1.27,0l0.19-0.76l0.67,0
		l-0.19,0.76l1.27,0c-0.33-0.48-0.46-0.86-0.4-1.13l1.64-1.53l-1.27,0l-0.97,1.53l-0.67,0l0.28-1.17c0.45,0,0.7-0.12,0.76-0.36
		C367.5,74.49,365.98,74.61,363.54,74.6z M370.87,75.79l-1.05,1.89c0.4,0,0.56,0.14,0.5,0.41c-0.6,0-1.57,0.51-2.91,1.52l-0.6,0
		l0.19-0.76l-0.67,0l-0.19,0.76l-0.6,0l-1.17-0.41l-0.1,0.4l0.6,0c-0.52,0.48-0.8,0.85-0.87,1.12l-0.1,0.4l0.6,0
		c0.04-0.18,0.59-0.69,1.64-1.53l0.67,0c-0.25,1.02,0.25,1.53,1.5,1.53c0.05-0.21,0.46-0.97,1.23-2.29l0.6,0l-0.27,1.12l0.67,0
		l0.46-1.89l0.6,0c-0.21-0.78-0.54-1.17-0.99-1.17l0.86-0.76l0.09-0.36L370.87,75.79z M370.1,47.54l-0.09,0.36
		c1.53,0.66,2.25,1.17,2.17,1.53l1.36-0.36l-0.19,0.76l-3.13-0.01l-1.36,0.36l0.41,0.77l-0.1,0.4c-2.54-0.01-3.9,0.37-4.08,1.12
		l1.17,0.41l0.67,0l4.27-1.92c0.73,0.27,1.32,0.41,1.77,0.41l-0.78,0.76l0.6,0c0.12-0.51,1.03-0.76,2.72-0.76l0.1-0.4
		c-1.69,0-2.48-0.26-2.35-0.77l0.09-0.36l3.31-0.4l0.09-0.36c-1.29,0-3.09-0.52-5.38-1.54L370.1,47.54z M367.38,142.59l-0.09,0.36
		c-0.57,0.51-0.89,0.9-0.96,1.17l-0.6,0l0.28-1.17L367.38,142.59z M372.07,128.47l-1.04,1.53l-2.25-1.17
		c-0.87,0.09-1.35,0.34-1.45,0.76l-0.1,0.4c1.14,0.63,1.67,1.14,1.57,1.53l0.6,0l0.19-0.76l1.76,0.77c0.07-0.27,0.3-0.4,0.7-0.4
		l-0.19,0.76c0.84,0,1.33-0.25,1.45-0.76l-0.81-1.89c0.45,0,0.7-0.13,0.77-0.4L372.07,128.47z M368.84,141.83l-0.19,0.76l-1.27,0
		C367.6,142.08,368.09,141.82,368.84,141.83z M374.18,140.71c0.74,0.24,1.33,0.36,1.78,0.36c0.06-0.24,0.31-0.36,0.76-0.36
		l-0.19,0.76c-1.29,0-2.06,0.49-2.3,1.48l1.76,0.77l0.19-0.76l0.6,0c-0.25,1.02,0.48,1.53,2.17,1.54l0.09-0.36l1.18,0.36l1.36-0.36
		c-0.09,0.39,0.63,0.9,2.17,1.53l0.19-0.76l0.6,0c0.82,0.09,1.19,0.35,1.08,0.77l-0.46,1.89l-0.6,0l0.27-1.12l-1.36,0.36l0.19-0.76
		l-1.37,0.4l0.19-0.76l-1.27,0l-0.19,0.76l-0.6,0c0.25-1.02-0.05-1.53-0.9-1.53l-0.67,0l-0.09,0.36l0.49,0.77l-0.67,0l-1.18-0.36
		l-0.09,0.36l-2.86-1.13l-0.19,0.76l-0.67,0l0.19-0.76l-1.27,0l-2.42,2.29l-1.27,0l-0.3-1.53l1.18,0.36l0.67,0l0.09-0.36l-1.27,0
		l0.19-0.76l1.27,0l0.1-0.4l-1.27,0c-0.57,0.51-0.89,0.9-0.96,1.17l-0.6,0l-0.12-2.29c0.84,0,1.33-0.25,1.45-0.76
		c1.29,0,1.82,0.51,1.57,1.53l0.6,0c0.12-0.51,0.83-0.76,2.13-0.76c0.07-0.27-0.13-0.41-0.57-0.41c0.56-0.48,0.88-0.85,0.94-1.12
		L374.18,140.71z M370.84,52.49l-0.19,0.76l1.27,0l-0.1,0.4c-1.09,0-1.87,0.51-2.31,1.52l-0.09,0.36l0.67,0l0.19-0.76l1.27,0
		l-0.1,0.4l-0.86,0.76l0.67,0c0.07-0.27,0.3-0.4,0.7-0.4c0.03,0.51,0.39,0.77,1.08,0.77c-0.22-0.75-0.55-1.13-1-1.13l0.86-0.76
		c-0.24-1.29-0.73-1.94-1.47-1.94L370.84,52.49z M369.83,134.95l1.27,0l0.3,1.53l-1.27,0L369.83,134.95z M372.31,145.66l1.27,0
		l0.3,1.53l-1.36,0.36C372.73,146.71,372.66,146.08,372.31,145.66z M379.38,134.97l-0.1,0.4c-0.06,0.24,0.11,0.36,0.51,0.36
		c-0.89,1.02-1.64,1.53-2.24,1.52c0.12-0.51-0.24-0.77-1.08-0.77l-0.19,0.76c-1.14,0-1.64-0.63-1.48-1.89
		c-0.86,0.06-1.34,0.31-1.45,0.76l-0.37,1.53c0.03,0.51,0.39,0.76,1.08,0.77l0.67,0l-0.49-0.77l0.1-0.4l1.27,0l-0.19,0.76l0.67,0
		l0.19-0.76l0.6,0l-0.19,0.76l1.27,0l0.19-0.76l1.27,0l0.2,1.93c-0.45,0-0.7,0.12-0.76,0.36l1.27,0l1.04-1.53
		c-0.65,0-1.2-0.38-1.67-1.13l0.1-0.4l1.17,0.41l0.67,0l0.1-0.4l-1.27,0l1.54-1.12l0.1-0.4l-1.37,0.4L379.38,134.97z M382.04,129.26
		l-0.27,1.12l-0.67,0l-1.18-0.36l-0.19,0.76l-0.6,0l0.28-1.17l-1.27,0l-0.28,1.17l-0.67,0c-0.85,0-1.17-0.39-0.99-1.17l-0.6,0
		l-0.19,0.76l-1.18-0.36l-0.67,0c1.4,1.2,2.06,1.97,1.98,2.3l2.13-0.76l-0.19,0.76l0.6,0l0.28-1.17l1.17,0.41
		c0.07-0.27,0.32-0.4,0.77-0.4l-0.28,1.17l0.6,0c0.37-1.53,1.62-2.29,3.76-2.29c-0.06,0.24,0.11,0.36,0.51,0.36
		c-0.28-0.48-0.39-0.85-0.33-1.12l-1.27,0l-0.19,0.76l-0.67,0l0.19-0.76L382.04,129.26z M377.73,99.87l-1.13,1.89
		c0.45,0,0.64,0.12,0.58,0.36c-0.45,0-0.7,0.13-0.77,0.4l0.67,0c0.07-0.27,0.3-0.4,0.7-0.4l-0.1,0.4c-0.52,0.48-0.8,0.85-0.87,1.12
		l0.6,0l1.36-0.36c-0.06,0.24,0.14,0.36,0.58,0.36l1.15-2.29l0.67,0l-0.28,1.17c0.84,0,1.33-0.25,1.45-0.76l0.1-0.4
		c-0.85,0-1.21-0.24-1.09-0.72L380,101l0.27-1.12l-0.67,0c-0.24,0.99-0.98,1.48-2.23,1.48l0.09-0.36l0.78-0.76l0.09-0.36
		L377.73,99.87z M377.05,141.84l0.67,0l-0.27,1.12l-0.67,0L377.05,141.84z M381.13,91.06c0.27,0.51,0.38,0.9,0.31,1.17
		c-0.86,0.06-1.34,0.31-1.45,0.76l-0.09,0.36l1.36-0.36l-0.19,0.76l-3.22,0.35l-0.19,0.76l1.36-0.36l-0.27,1.12l2.54,0.01
		l-0.21-1.89l1.27,0l0.19-0.76c-0.85,0-1.24-0.14-1.17-0.41l0.86-0.76l-0.49-0.77c0.56-0.48,0.88-0.85,0.94-1.12
		C381.83,89.94,381.31,90.32,381.13,91.06z M377.97,101.36l1.27,0l-0.19,0.76l-1.27,0L377.97,101.36z M381.97,116.26
		c-0.45,1.02-1.19,1.53-2.24,1.52l-0.1,0.4l1.27,0l-0.09,0.36c-0.12,0.51-0.61,0.76-1.45,0.76l0.19-0.76l-0.67,0l-0.19,0.76l0.67,0
		l-0.86,0.76l-0.1,0.4c1.76-0.27,2.79-1.03,3.09-2.29l-0.6,0l1.74-1.93L381.97,116.26z M381.2,75.05l-0.27,1.12
		c1.24,0,1.74,0.51,1.49,1.53l-1.27,0l0.27-1.12l-1.27,0l-0.46,1.89l0.67,0l0.19-0.76l0.6,0c-0.37,1.53-0.13,2.29,0.71,2.3
		c-0.28-0.48-0.39-0.86-0.32-1.13l0.1-0.4l0.6,0l-0.19,0.76l1.27,0l0.19-0.76l-1.27,0l0.19-0.76l1.17,0.41l1.27,0
		c0.28-1.14,0.68-1.9,1.23-2.29l0.1-0.4l-0.67,0c-0.19,0.78-0.91,1.17-2.15,1.16l-0.2-1.94C382.31,74.92,381.65,75.05,381.2,75.05z
		 M380.89,44.91l1.27,0c-0.12,0.51-0.61,0.76-1.45,0.76L380.89,44.91z M383.84,111.31l0.6,0l-0.37,1.53l-1.18-0.36
		C383.46,111.97,383.78,111.58,383.84,111.31z M384.57,134.21c0.64,0.84,0.91,1.49,0.8,1.94c-0.51,0.48-0.8,0.85-0.87,1.12
		l-1.18-0.36l-0.09,0.36c0.4,0,0.56,0.14,0.5,0.41c1.14,0,2.17-0.76,3.09-2.29L384.57,134.21z M385.71,119.33l-0.1,0.4l1.27,0
		l-0.37,1.53l-2.54-0.01l0.1-0.4l-0.67,0l-0.1,0.4c-0.05,1.02,0.48,1.53,1.57,1.53l-0.86,0.76c0.65,0.81,0.92,1.44,0.81,1.89l1.27,0
		l0.97-1.53c-0.64-0.24-1.43-0.36-2.38-0.37c0.06-0.27,0.3-0.4,0.69-0.4c-0.28-0.48-0.39-0.86-0.32-1.12l0.1-0.4l0.6,0l-0.19,0.76
		l2.05-0.76c-0.19,0.78,0.36,1.17,1.66,1.17c-1-1.23-1.36-2.39-1.1-3.47l-1.29,0.4l0.28-1.17
		C386.3,118.65,385.81,118.91,385.71,119.33z M432.16,45.02l3.21,0.01l-0.36,1.48l0.6,0l0.17-0.72l1.18,0.36l0.67,0l0.09-0.36
		c-1.29,0-1.88-0.26-1.76-0.77l7.02,0.02l1.68,0.77l0.18-0.76l1.27,0l-0.18,0.76l0.67,0l0.18-0.76l3.13,0.01l1.18,0.36
		c0.06-0.24,0.29-0.36,0.68-0.36l-0.27,1.12l0.67,0l0.27-1.12l3.13,0.01c0.45,0,0.64,0.12,0.58,0.36l1.36-0.36l2.54,0.01
		c0.4,0,0.57,0.12,0.51,0.36l1.36-0.36l0.67,0l-0.86,0.76l-0.09,0.36c0.85,0,1.36-0.37,1.54-1.12l1.27,0c0.95,0,1.76,0.12,2.45,0.37
		c0.8-0.24,1.68-0.36,2.62-0.35l1.27,0l-1.2,4.95c-0.06,0.24-0.29,0.36-0.68,0.36l0.41,0.77l-1.11,4.59
		c-0.14,0.57-0.46,1.08-0.97,1.53c0.27,0.51,0.38,0.9,0.31,1.17l-0.6,0l0.41,0.77l-1.47,6.07c-0.14,0.57-0.46,1.08-0.97,1.53
		c0.29,0.45,0.36,0.96,0.23,1.53l-0.28,1.17c-0.06,0.24-0.29,0.36-0.68,0.36l0.41,0.77l-5.46,22.53c-0.06,0.24-0.29,0.36-0.68,0.36
		l0.41,0.77l-0.1,0.4c-0.06,0.24-0.29,0.36-0.68,0.36l0.41,0.77l-0.56,2.29l-1.27,0l-0.1,0.4l6.34,0.01c0.4,0,0.57,0.12,0.51,0.36
		l1.36-0.36l0.67,0c0.4,0,0.57,0.12,0.51,0.36l1.36-0.36l3.21,0.01l-0.19,0.76l0.6,0l0.19-0.76l1.27,0l-0.19,0.76l0.67,0l0.19-0.76
		l3.13,0.01l-0.19,0.76l1.27,0l0.19-0.76l2.54,0.01l-2.49,10.3l-1.17-0.41l0.49,0.77l-0.93,3.82l-0.67,0
		c0.12-0.51-0.66-0.77-2.35-0.77l-0.78,0.76l1.17,0.41l0.19-0.76c0.74,0.24,1.33,0.36,1.78,0.36c-2.2,5.6-4.15,8.4-5.84,8.4
		c0.11-0.45-0.36-1.1-1.4-1.94l0.09-0.36l0.78-0.76c-1.17,0.09-2.16,0.71-2.99,1.88l0.67,0c0.06-0.24,0.29-0.36,0.69-0.36
		l-0.19,0.76l-2.24,1.53l1.68,0.77c0.04-0.18,0.59-0.69,1.64-1.53l1.27,0c-0.07,0.27,0.07,0.65,0.4,1.13l-2.41,1.93
		c0.45,0,0.64,0.12,0.58,0.36c-1.19,0-2.14,0.38-2.82,1.16l0.41,0.77c-2.35,2.51-4.35,3.77-5.99,3.77l-0.1,0.4l0.49,0.77
		c-0.25,0-1.7,0.76-4.36,2.28l0.37-1.53l1.27,0l0.19-0.76l-2.13,0.76l-0.6,0c-1.78-0.27-3.21-0.41-4.31-0.42
		c-1.3,0.63-2.58,1.52-3.86,2.69l1.37-0.4l1.17,0.41l0.86-0.76c-0.85,0-1.21-0.26-1.08-0.77l2.05-0.76l-0.09,0.36l-0.78,0.76
		l1.17,0.41l0.28-1.17l1.27,0l-0.86,0.76l-0.1,0.4l3.13,0.01l-0.09,0.36c-0.19,0.78-1.53,1.17-4.02,1.16l-0.09,0.36l0.41,0.77
		l-7.78,3.45c0.07-0.27-0.13-0.41-0.57-0.41c-0.25,1.02-1.22,1.53-2.91,1.52c0.25-1.02-0.25-1.53-1.5-1.53l-1.14,1.93
		c0.45,0,0.64,0.12,0.58,0.36c-1.32,0.51-2.87,0.76-4.66,0.75l0.09-0.36c-1.51,1.5-4.43,2.24-8.75,2.23l-0.6,0l0.41,0.77
		c-0.95,0-1.82,0.13-2.64,0.4c0.12-0.51-0.24-0.77-1.08-0.77c-0.25,1.02-2.06,1.52-5.45,1.52c-2.16,0.5-4.76,0.75-7.8,0.75
		c0.07-0.27-0.1-0.4-0.5-0.41l-0.19,0.76l-3.81-0.01l0.19-0.76l-0.6,0c-0.85,0-1.36,0.39-1.55,1.17l-3.21-0.01
		c-0.4,0-0.56-0.14-0.5-0.41l-1.37,0.4l-1.94,0c-0.85,0-1.21-0.26-1.08-0.77c0.07-0.27,0.32-0.4,0.77-0.4l-0.21-1.89
		c0.14-0.57,0.48-1.08,1.04-1.53c-0.34-0.45-0.44-0.96-0.3-1.53l0.09-0.36l1.94,0l-1.47-1.94l0.37-1.53l1.23-2.29
		c-0.34-0.45-0.44-0.96-0.3-1.53l0.09-0.36l0.67,0l-0.19,0.76l0.6,0l1.14-1.93c-0.79-0.24-1.41-0.36-1.85-0.36l3.33-13.76l1.54-1.12
		l0.1-0.4l-1.27,0l0.18-0.76l1.17,0.41c0.12-0.51,2.65-1.27,7.57-2.28c0.06-0.24,0.29-0.36,0.68-0.36l-0.19,0.76l0.67,0l0.19-0.76
		c-0.45,0-0.64-0.14-0.57-0.41c3.23-1.22,5.35-3.89,6.34-7.99l2.86-11.82c0.14-0.57,0.49-1.08,1.04-1.53
		c-0.34-0.45-0.44-0.96-0.3-1.53l0.67,0l-0.49-0.77l0.56-2.29c0.07-0.27,0.32-0.4,0.77-0.4l-0.5-0.72l0.74-3.06
		c0.14-0.57,0.48-1.08,1.04-1.53c-0.34-0.45-0.44-0.96-0.3-1.53l0.37-1.53c0.21-0.87,0.59-1.51,1.14-1.93l-0.12-2.3l0.36-1.48
		l1.55-1.17l0.09-0.36l-1.27,0l0.56-2.29l0.67,0l-0.37,1.53l0.6,0l0.47-1.93l-1.27,0l0.46-1.89c0.36-1.47,0.8-2.37,1.33-2.7
		c-0.11-1.38-0.06-2.52,0.16-3.42l1.94-8l1.18,0.36l1.13-1.89c-0.85,0-1.36,0.37-1.54,1.12l-0.67,0l0.27-1.12
		c0.07-0.27,0.32-0.4,0.77-0.4l-0.49-0.77l1.1-4.54C430.98,45.28,431.46,45.02,432.16,45.02z M396.11,44.94l1.27,0
		c0.83,0.06,1.19,0.32,1.08,0.77c-0.56,0.48-0.88,0.85-0.94,1.12l-0.6,0c0.12-0.51-0.24-0.76-1.08-0.77L396.11,44.94z
		 M401.02,131.96c-0.25,1.02-1.02,1.53-2.31,1.52l0.2,1.94c-0.65,0-1.42,0.51-2.31,1.52c0.85,0,1.21,0.26,1.08,0.77l0.67,0l0.1-0.4
		l-0.49-0.77c2.06-1.52,3.16-2.54,3.28-3.05c-0.4,0-0.57-0.12-0.51-0.36l0.6,0l1.18,0.36l0.19-0.76c-0.85,0-1.21-0.26-1.08-0.77
		L401.02,131.96z M419.72,127.81c-0.12,0.51-0.61,0.76-1.45,0.76l-0.09,0.36l1.94,0l-2.41,1.93l1.37-0.4l0.67,0l-0.86,0.76
		l-0.19,0.76l0.67,0c0.14-0.57,0.46-1.08,0.97-1.53l0.27-1.12c0.55,0,1.09-0.51,1.64-1.53l-0.6,0l-1.37,0.4
		C420.36,127.95,420.17,127.82,419.72,127.81z M423.04,135.07c-0.49,0.39-0.88,1.15-1.15,2.29l-0.67,0
		c0.18-0.75-0.35-1.13-1.59-1.13c1.01,0.96,1.48,1.59,1.41,1.89l2.81-1.12l1.18,0.36c-0.28-0.48-0.39-0.86-0.33-1.13
		c0.52-0.51,0.82-0.9,0.88-1.17l-1.37,0.4L423.04,135.07z M423.78,132.01l-1.55,1.17l-0.09,0.36l2.44,0.41
		c0.07-0.27,0.32-0.4,0.77-0.4l-0.19,0.76l1.27,0l0.19-0.76l1.17,0.41l0.37-1.53l0.6,0l-0.27,1.12l0.67,0
		c0.14-0.57,0.46-1.08,0.97-1.53l-0.6,0l-0.1,0.4l-1.17-0.41c-1.29,0-2.04,0.39-2.22,1.16l-0.6,0
		C425.63,132.4,425.08,132.01,423.78,132.01z M423.2,139.65l-0.1,0.4l0.67,0l-0.86,0.76c-0.31,1.26,0.36,2.01,1.99,2.25l-0.42-0.72
		l0.19-0.76l1.18,0.36c0.14-0.57,0.46-1.08,0.97-1.53l0.09-0.36l-0.6,0c-0.18,0.75-0.92,1.12-2.21,1.12
		C424.35,140.17,424.05,139.66,423.2,139.65z M433.12,122.13l-1.68-0.77l0.9,1.53l-1.27,0l0.19-0.76l-0.6,0l-0.09,0.36l0.9,1.53
		l-1.27,0l-0.1,0.4l2.46,0.01l-0.19,0.76l-0.6,0l-1.17-0.41l0.49,0.77l-0.1,0.4l-1.17-0.41l-0.28,1.17l-0.67,0
		c0.04-0.18-0.26-0.69-0.9-1.53l-0.6,0l-0.09,0.36c0.27,0.51,0.38,0.9,0.31,1.17l-0.09,0.36l-0.6,0l0.19-0.76l-0.67,0l-2.05,0.76
		l0.09-0.36l1.55-1.17c-1.76,0.27-2.79,1.03-3.09,2.29c0.84,0,1.18,0.38,1,1.13l-0.28,1.17c0.4,0,0.54,0.26,0.41,0.77
		c0.85,0,1.36-0.39,1.55-1.17c-0.28-0.48-0.39-0.86-0.32-1.13l1.36-0.36l0.81,1.89l0.6,0l1.23-2.29c0.4,0,0.56,0.14,0.5,0.41
		l1.37-0.4l0.6,0l-0.1,0.4l-2.23,1.48l-0.1,0.4l1.27,0c0.17-0.69,0.97-1.45,2.42-2.29l0.09-0.36c-1.24,0-1.77-0.39-1.58-1.17
		l3.18-2.65l1.18,0.36l0.6,0l0.19-0.76c-0.45,0-1.04-0.12-1.78-0.36c-0.06,0.24-0.31,0.36-0.76,0.36l0.09-0.36
		c0.07-0.27,0.32-0.4,0.77-0.4c-0.33-0.48-0.47-0.86-0.4-1.13l0.1-0.4l0.67,0l0.8,1.94l0.6,0c0.14-0.57,0.48-1.08,1.04-1.53l-0.67,0
		c-0.06,0.24-0.29,0.36-0.68,0.36c0.12-0.51-0.24-0.77-1.08-0.77l0.18-0.76l1.17,0.41l0.19-0.76l-0.67,0
		C434.4,120.35,433.37,121.11,433.12,122.13z M431.95,129.73l-0.47,1.93c0.85,0,1.15,0.51,0.9,1.53l-1.36,0.36l0.27-1.12l-0.67,0
		c-0.14,0.57-0.46,1.08-0.97,1.53l0.6,0c0.07-0.27,0.32-0.4,0.77-0.4l-0.1,0.4c-0.56,0.48-0.88,0.85-0.94,1.12l-1.19,0l0.19-0.76
		l-0.67,0c-0.11,0.45-0.89,1.09-2.33,1.93l-0.19,0.76c0.45,0,1.04,0.12,1.78,0.36l0.19-0.76l-1.27,0l0.19-0.76
		c0.84,0,1.33-0.25,1.45-0.76l0.67,0l-0.28,1.17l0.6,0c0.19-0.78,0.71-1.17,1.55-1.17l1.68,0.77l0.09-0.36
		c-0.85,0-1.21-0.26-1.08-0.77l0.1-0.4l1.17,0.41l0.1-0.4l-0.41-0.77l1.27,0l0.09-0.36c-1.1-0.81-1.46-1.97-1.1-3.47L431.95,129.73z
		 M428.69,90.81l-0.83,3.42c0.9-0.24,1.58-0.36,2.03-0.35l0.1-0.4l-1.27,0l0.64-2.65L428.69,90.81z M435.22,126.73
		c-0.14,0.57-1.2,1.45-3.18,2.65c0.65,0,1.43,0.26,2.35,0.77l1.24-2.65l0.19-0.76L435.22,126.73z M436.61,63.34l-0.19,0.76
		l-1.17-0.41l-0.6,0l0.13,1.93l-0.27,1.12l-0.78,0.76c0.6,0,1.12,0.39,1.58,1.17l-0.09,0.36l-1.18-0.36l-0.37,1.53
		c1.29,0,2.06-0.5,2.31-1.52c-0.32-0.51-0.45-0.9-0.39-1.17c0.84,0,1.33-0.25,1.45-0.76c-1.24,0-1.68-0.77-1.31-2.3l1.17,0.41
		l0.37-1.53L436.61,63.34z M438.52,110.31l-1.15,2.29l-0.67,0c0.19-0.78-0.14-1.17-0.99-1.17l-1.29,0.4
		c0.07-0.27-0.13-0.4-0.57-0.41l-0.1,0.4c0.03,0.51,0.39,0.77,1.08,0.77l0.6,0l0.19-0.76l0.67,0c-0.09,0.39,0.21,0.9,0.9,1.53
		l1.37-0.4l0.6,0l-0.1,0.4l-0.78,0.76l-0.09,0.36l0.6,0l0.19-0.76l0.67,0l-0.19,0.76l0.6,0l0.27-1.12c-0.55,0-1.21-0.77-1.98-2.3
		l1.27,0l0.19-0.76L438.52,110.31z M438.78,122.5c-0.31,1.29-0.89,1.93-1.74,1.93l-0.67,0l1,1.13l-0.1,0.4l-1.27,0
		c0.03,0.51,0.39,0.77,1.08,0.77c0.19-0.78,0.71-1.17,1.55-1.17l-0.41-0.77l0.09-0.36l1.18,0.36l1.54-1.12l-1.27,0l-0.19,0.76
		l-0.67,0l0.28-1.17c0.45,0,0.7-0.12,0.76-0.36L438.78,122.5z M442.72,74.78c-0.52,0.51-0.81,0.9-0.88,1.17l-0.27,1.12
		c-0.75,0-1.33,0.64-1.74,1.93c-0.65,0-1.17-0.51-1.57-1.53c1.69,0,2.63-0.38,2.82-1.16l-0.6,0c-0.12,0.51-0.61,0.76-1.45,0.76
		l0.09-0.36l0.78-0.76l0.1-0.4l-0.6,0c-1.77,1.98-2.76,3.38-2.96,4.22c0.65,0,1.43,0.26,2.35,0.77l0.1-0.4
		c-0.4,0-0.57-0.12-0.51-0.36l0.6,0l1.18,0.36l1.13-1.89l1.18,0.36c0.06-0.24,0.29-0.36,0.68-0.36l-0.41-0.77l0.28-1.17l-0.67,0
		l0.19-0.76l1.17,0.41l0.6,0c0.07-0.27,0.38-0.66,0.95-1.17l-1.37,0.4L442.72,74.78z M438.39,50.75l-0.6,0l0.19-0.76l-0.67,0
		l-0.09,0.36c0.32,0.51,0.45,0.9,0.39,1.17l0.6,0L438.39,50.75l0.67,0l0.04,2.29c-0.86,0.06-1.35,0.31-1.46,0.76l-0.27,1.12l0.67,0
		l0.19-0.76c1.24,0,1.77,0.39,1.58,1.17c0.85,0,1.33-0.25,1.45-0.76l0.1-0.4l-1.37,0.4l-0.04-2.29l1.87,0
		c-0.11,0.45,0.16,1.08,0.81,1.89c-0.51,0.45-0.83,0.96-0.97,1.53c0.45,0,1.4,0.39,2.85,1.18c0.07-0.27,0.32-0.4,0.77-0.4
		l-0.37,1.53l0.6,0c0.18-0.75,0.69-1.12,1.54-1.12l-0.19,0.76l1.37-0.4l-0.1,0.4c-0.51,0.48-0.8,0.85-0.87,1.12
		c1.77-0.51,2.68-0.88,2.73-1.12l1.18,0.36l0.67,0l0.27-1.12c0.84,0,1.12,0.63,0.81,1.89c0.4,0,0.63-0.12,0.68-0.36
		c0.69,0.24,1.5,0.36,2.45,0.36l-0.1,0.4l-0.77,0.72l0.6,0c0.99-0.6,1.53-1.09,1.63-1.48l1.27,0l-0.27,1.12l1.36-0.36l-0.17,0.72
		l1.27,0c0.24-0.99,1.01-1.48,2.3-1.48l0.1-0.4l-0.21-1.89l-0.6,0l-0.19,0.76l-1.27,0l0.1-0.4l0.78-0.76l-1.37,0.4l-0.6,0l0.19-0.76
		l-0.67,0l-0.19,0.76c0.83,0.06,1.19,0.32,1.08,0.77l-0.6,0c-0.78-0.27-1.4-0.41-1.84-0.41c-0.12,0.51-0.61,0.76-1.45,0.76
		l0.27-1.12l-0.6,0l-0.19,0.76l-1.27,0l0.19-0.76l-0.67,0l-0.27,1.12c-0.85,0-1.21-0.26-1.08-0.77l0.86-0.76
		c-0.33-0.48-0.46-0.86-0.4-1.13c-0.86,0.06-1.34,0.31-1.45,0.76l-1.17-0.41l-1.87,0c0.09-0.36-0.45-0.74-1.59-1.13l-0.18,0.76
		l-1.76-0.77c-1.05,0.84-1.6,1.35-1.64,1.53l-0.6,0l0.47-1.93c0.85,0,1.33-0.25,1.45-0.76l1.17,0.41c0.22-0.51,0.71-0.76,1.45-0.76
		c-0.06,0.24,0.11,0.36,0.51,0.36l0.86-0.76l-2.45-0.37c-0.06,0.24-0.31,0.36-0.76,0.36l0.19-0.76l-0.6,0l-0.19,0.76l-1.27,0
		c0.18-0.75,0.89-1.12,2.14-1.12l0.1-0.4c-1.04-0.84-1.51-1.47-1.41-1.89l-1.27,0l-0.19,0.76l-1.17-0.41l-0.19,0.76l-0.67,0
		l0.27-1.12C439.65,49.06,438.62,49.82,438.39,50.75z M441.11,128.63l0.41,0.77l-0.09,0.36l-1.18-0.36l-0.6,0l-0.09,0.36
		c0.85,0,1.18,0.39,0.99,1.17l0.6,0l0.19-0.76l1.27,0l-0.09,0.36l-0.78,0.76l0.6,0c0.06-0.24,0.31-0.36,0.76-0.36
		c-0.12,0.51,0.66,0.77,2.35,0.77c0.19-0.78,0.91-1.17,2.15-1.17l0.19-0.76l-0.41-0.77c0.4,0,0.63-0.12,0.68-0.36l-0.6,0l-3.67,1.88
		l0.09-0.36l0.86-0.76l0.1-0.4l-0.67,0l-0.19,0.76l-1.27,0l0.09-0.36l0.86-0.76l-1.36,0.36L441.11,128.63z M441.67,97.32
		c-0.19,0.78-0.48,1.17-0.88,1.17l0.41,0.77l-0.46,1.89c-0.06,0.24-0.29,0.36-0.68,0.36c0.27,0.51,0.38,0.9,0.31,1.17l-0.78,0.76
		c0.28,0.48,0.39,0.86,0.32,1.13l0.67,0l0.56-2.29c0.06-0.24-0.14-0.36-0.58-0.36c0.56-0.45,0.9-0.96,1.04-1.53
		c0.84,0,1.18,0.38,1,1.13l0.6,0l0.09-0.36l-1.41-1.89l0.1-0.4l1.27,0l-0.19,0.76l0.6,0l0.09-0.36c-0.28-0.51-0.38-0.9-0.31-1.17
		l-1.37,0.4l0.28-1.17L441.67,97.32z M444.22,76.32l-0.28,1.17l1.27,0l-0.09,0.36c-1.24,0-2.02,0.64-2.33,1.93l1.27,0l-0.27,1.12
		l-0.67,0c0.18-0.75-0.35-1.13-1.59-1.13l-1.64,1.53l1.27,0l0.19-0.76c1.24,0,1.78,0.38,1.59,1.13c0.75,0,2.08-0.25,3.99-0.76
		l-0.1,0.4l-0.78,0.76l0.6,0l1.37-0.4l-0.41-0.77l0.19-0.76l1.17,0.41l0.19-0.76l-2.54-0.01l0.1-0.4l1.27,0l0.37-1.53
		c0.12-0.51-0.24-0.77-1.08-0.77c-0.07,0.27-0.38,0.66-0.96,1.17l-0.27,1.12c-0.4,0-0.66,0.25-0.78,0.76l-0.67,0l-0.23-1.53
		c0.85,0,1.36-0.37,1.54-1.12c-0.32-0.51-0.45-0.9-0.39-1.17L444.22,76.32z M442,85.49c-0.4,1.65-0.91,2.92-1.52,3.82l1.27,0
		l0.64-2.65l0.6,0l-0.27,1.12c0.84,0,1.33-0.25,1.45-0.76c-1.04,0-1.54-0.51-1.5-1.53L442,85.49z M446.04,131.7
		c-0.25,1.02-0.99,1.53-2.24,1.52l0.19-0.76l-0.67,0l-0.19,0.76c0.83,0.06,1.19,0.32,1.08,0.77l-0.6,0l-1.17-0.41l-0.67,0l-0.1,0.4
		c0.94,0,1.7,0.38,2.27,1.13l-0.1,0.4l1.37-0.4l-0.19,0.76l1.36-0.36l-0.27,1.12l-1.18-0.36l-0.09,0.36
		c0.03,0.51,0.39,0.77,1.08,0.77l0.67,0l-0.49-0.77l0.67,0l1.17,0.41c-0.46-1.2-1.48-2.22-3.07-3.07c0.51-0.45,0.83-0.96,0.97-1.53
		l1.27,0c-0.51,0.48-0.8,0.85-0.87,1.12l-0.1,0.4l0.6,0l1.04-1.53L446.04,131.7z M442.03,116.8l0.67,0l1.37-0.4
		c-0.31,1.29-0.05,1.93,0.8,1.94l-0.49-0.77l0.1-0.4l0.67,0l1.17,0.41l0.19-0.76c-1.29,0-1.82-0.51-1.57-1.53
		c0.45,0,0.7-0.12,0.76-0.36C444.55,114.92,443.33,115.54,442.03,116.8z M446.33,88.56l-0.09,0.36l1.27,0l-0.28,1.17l-1.68-0.77
		c-0.09,0.39-0.64,0.9-1.64,1.53l1.18,0.36l-0.86,0.76l-0.1,0.4l0.67,0c0.15-0.63,1.22-1.53,3.19-2.69l0.09-0.36
		c0.12-0.51-0.24-0.77-1.08-0.77L446.33,88.56z M447.02,54.59c0.83,0.06,1.19,0.32,1.08,0.77l-1.27,0L447.02,54.59z M451.26,50.02
		l0.41,0.77l-0.09,0.36c-0.12,0.51-0.61,0.76-1.45,0.76c0.06-0.24-0.11-0.36-0.51-0.36c-0.2,0.84-0.55,1.47-1.05,1.89l-0.1,0.4
		l0.6,0l0.19-0.76l1.27,0l-0.86,0.76c1.29,0,1.88,0.26,1.76,0.77l0.6,0l0.56-2.29l1.27,0l-0.78,0.76l-0.19,0.76
		c1.39,0,2.41,0.13,3.05,0.37c-0.36-1.41-1.41-2.3-3.16-2.66c-0.06,0.24-0.29,0.36-0.68,0.36
		C452.38,50.65,452.11,50.02,451.26,50.02z M449.18,118.7l-0.19,0.76c1.29,0,1.85,0.39,1.66,1.17c-0.56,0.48-0.88,0.85-0.94,1.12
		l1.17,0.41l0.1-0.4l-0.41-0.77c0.85,0,1.33-0.25,1.45-0.76L449.18,118.7z M453.03,79.4l-1.18-0.36l-1.13,1.89l1.36-0.36l-0.19,0.76
		c0.85,0,1.33-0.25,1.45-0.76l0.1-0.4L453.03,79.4l0.6,0c0.78,0.27,1.39,0.41,1.84,0.41c0.07-0.27,0.3-0.4,0.69-0.4l-0.19,0.76
		l0.67,0l0.09-0.36c-0.32-0.51-0.45-0.9-0.39-1.17l-2.05,0.76l0.27-1.12C453.73,78.27,453.21,78.65,453.03,79.4z M451.83,55.37
		l1.27,0l-0.19,0.76l-1.27,0L451.83,55.37z M455.2,72.92c-0.25,1.02-0.99,1.53-2.24,1.52l-0.19,0.76c0.85,0,1.21,0.26,1.08,0.77
		c0.84,0,1.45-0.76,1.82-2.29l0.6,0c0.64,0.84,0.94,1.35,0.9,1.53l0.67,0c0.07-0.27,0.36-0.66,0.88-1.17l0.09-0.36l-0.6,0
		l-0.19,0.76l-0.67,0C457.5,73.89,456.78,73.38,455.2,72.92z M460.34,56.92l0.67,0l-0.27,1.12l-0.67,0L460.34,56.92z M464.89,103.49
		c-0.18,0.75-0.47,1.12-0.87,1.12c0.46,1.59,0.64,2.61,0.53,3.06l0.6,0c-0.18-0.9-0.04-2.29,0.42-4.18L464.89,103.49z
		 M464.94,113.79l-0.1,0.4l0.67,0l0.19-0.76l1.27,0c-0.18,0.75,0.35,1.12,1.59,1.13c0.06-0.24,0.31-0.36,0.76-0.36l-0.36,1.48
		c0.4,0,0.54,0.26,0.41,0.77l0.67,0l0.09-0.36c-0.33-0.48-0.46-0.86-0.4-1.13c0.45,0,0.7-0.13,0.77-0.4c-0.65,0-1.17-0.51-1.57-1.53
		l-1.37,0.4l-0.6,0l0.1-0.4c0.51-0.48,0.8-0.85,0.87-1.12C466.76,112,465.77,112.62,464.94,113.79z M468.44,107.32
		c-0.06,0.24,0.11,0.36,0.51,0.36l-0.78,0.76l-0.1,0.4c1.24,0,1.96-0.39,2.15-1.17l1.27,0l0.3,1.53l1.27,0l0.19-0.76l0.6,0
		l-0.28,1.17l0.67,0l0.19-0.76c-0.64-0.84-0.91-1.49-0.8-1.94l-1.27,0l-0.19,0.76c-0.85,0-1.21-0.26-1.08-0.77
		C470.27,107.19,469.39,107.32,468.44,107.32z"/>
	<path fill="#828282" d="M494.26,45.17l60.83,0.14l-2.58,10.66l-0.67,0c-0.4,0-0.57-0.12-0.51-0.36c-1.78,0.36-2.71,0.73-2.81,1.12
		l-0.1,0.4l1.87,0l2.13-0.76l-0.19,0.76l-1.54,1.12l1.27,0l-15.72,64.88c-0.06,0.24-0.31,0.36-0.76,0.36l0.49,0.77l-0.93,3.82
		c-0.07,0.27-0.32,0.4-0.77,0.4l0.5,0.72l-0.56,2.29l-0.67,0c0.18-0.75-0.57-1.13-2.27-1.13l-0.78,0.76l-0.09,0.36l0.6,0l0.19-0.76
		l1.27,0l-0.1,0.4c-0.51,0.48-0.8,0.85-0.87,1.12l-0.67,0l-1.18-0.36l-0.09,0.36c0.03,0.51,0.39,0.77,1.08,0.77l0.67,0l0.97-1.53
		l1.27,0l-0.1,0.4l-1.54,1.12l1.27,0l0.19-0.76l0.67,0l-1.39,5.76l-0.67,0l0.19-0.76c-0.6,0-1.31,0.37-2.14,1.12
		c-0.02,0.51,0.34,0.77,1.08,0.77l1.36-0.36l-0.64,2.65l-0.67,0l0.19-0.76l-0.6,0l-0.19,0.76c0.82,0.09,1.19,0.35,1.08,0.77
		l-1.01,4.18l-43.73-0.1c-0.4,0-0.57-0.12-0.51-0.36l-1.36,0.36l-15.23-0.03l1.57-6.47c0.18-0.75,0.47-1.12,0.87-1.12l-0.13-1.93
		l17.56-72.48c0.19-0.78,10.42-2.03,30.7-3.75l-0.19,0.76l-3.21-0.01L516.77,62l3.21,0.01c-2.46,1.31-3.74,2.2-3.85,2.65l-0.1,0.4
		l0.67,0c0.17-0.72,1.66-1.62,4.46-2.69c0.49-2.01,3.04-3.01,7.67-3c0.79,0,3.39-0.25,7.8-0.75c-0.06,0.24,0.11,0.36,0.51,0.36
		l0.19-0.76l3.81,0.01l0.27-1.12c-4.51,0.74-9.71,1.36-15.61,1.85c0.12-0.51-0.24-0.77-1.08-0.77c-0.25,1.02-2.06,1.52-5.45,1.52
		l-0.09,0.36c-0.45,0-0.64-0.12-0.58-0.36c-10.25,1-15.91,1.75-16.97,2.26c-0.45,0-0.64-0.14-0.57-0.41l-11.12,1.5L494.26,45.17z
		 M493.21,60.01l-0.1,0.4l6.94,0.02l0.1-0.4L493.21,60.01z M498.98,75.32c-0.09,0.39-1.39,1.41-3.87,3.05l-0.09,0.36l0.6,0
		c0.14-0.57,0.91-1.08,2.31-1.52c0.4,0,0.69-0.37,0.87-1.12l1.27,0c-0.12,0.51,0.04,0.76,0.49,0.77l-0.86,0.76l-0.09,0.36l1.94,0
		l0.19-0.76c-1.1-0.81-1.59-1.44-1.48-1.89L498.98,75.32z M527.95,123.11l-0.09,0.36l1.27,0c-0.12,0.51-0.76,1.41-1.92,2.7
		l1.18,0.36c0.06-0.24,0.31-0.36,0.76-0.36c-0.02,0.51,0.34,0.77,1.08,0.77l0.28-1.17c-1.29,0-1.85-0.38-1.67-1.13
		c0.57-0.51,0.89-0.9,0.96-1.17l-1.18-0.36L527.95,123.11z M546.07,113.98l43.66,0.1l-2.49,10.3c-0.06,0.27-0.3,0.4-0.7,0.4
		l0.41,0.77l-0.83,3.42c-0.06,0.24-0.29,0.36-0.69,0.36l0.41,0.77l-1.48,6.11l-0.78,0.76l0.6,0c-0.07,0.27-0.3,0.4-0.7,0.4
		l0.14,1.89l-1.75,7.24l-43.66-0.1l2.58-10.66c0.07-0.27,0.3-0.4,0.7-0.4l-0.41-0.77L546.07,113.98z M547.37,137.28
		c-0.11,0.45-1.17,1.33-3.18,2.65c0.27,0.51,0.38,0.9,0.31,1.17l1.27,0c0.06-0.27,0.38-0.66,0.95-1.17l0.27-1.12
		c0.4,0,0.66-0.25,0.78-0.76l1.18,0.36c-0.28-0.48-0.39-0.86-0.32-1.13L547.37,137.28z M562.87,128.14l-0.97,1.53
		c1.24,0,1.74,0.51,1.49,1.53l0.67,0l0.19-0.76l1.19,0l0.3,1.53l1.27,0l0.97-1.53l-2.17-1.53c-1,0.84-1.52,1.35-1.56,1.53l-0.67,0
		c0.1-0.42-0.23-0.81-0.99-1.17l0.85-0.72l0.1-0.4L562.87,128.14z M567.31,122.79l0.49,0.77l-2.24,1.52
		c-0.02,0.51,0.31,0.77,1.01,0.77l-0.78,0.76l-0.1,0.4l0.6,0l0.19-0.76l1.18,0.36l0.09-0.36c-0.4,0-0.56-0.14-0.5-0.41l1.36-0.36
		l-0.9-1.53l1.27,0l-0.19,0.76l2.05-0.76c-0.06,0.24,0.14,0.36,0.58,0.36l-0.49-0.77l0.09-0.36l0.67,0l1.18,0.36l0.19-0.76
		c-1.14,0-2.48,0.25-3.99,0.76l0.19-0.76L567.31,122.79z M572.26,128.56l-0.27,1.12l-1.68-0.77l0.41,0.77
		c-0.06,0.24-1.09,1-3.09,2.29l-0.09,0.36l1.36-0.36c-0.06,0.24,0.14,0.36,0.58,0.36l-0.49-0.77l0.09-0.36l0.67,0l1.68,0.77
		l1.14-1.93l-0.67,0l0.86-0.76l0.17-0.72L572.26,128.56z M568.73,135.39l-0.1,0.4c0.28,0.48,0.39,0.86,0.32,1.12
		c-0.4,0-0.63,0.13-0.69,0.4l1.87,0l-0.78,0.76c0.28,0.48,0.39,0.86,0.33,1.12l0.67,0l0.27-1.12c-0.45,0-0.64-0.14-0.57-0.41
		l1.36-0.36l1.94,0c-0.25,1.02,0.05,1.53,0.9,1.53l0.19-0.76l-0.2-1.94l-0.6,0l-0.19,0.76l-1.27,0c0.25-1.02-0.28-1.53-1.57-1.53
		c-0.12,0.51-0.61,0.76-1.45,0.76l0.19-0.76L568.73,135.39z M578.88,135.42l0.41,0.77l-0.1,0.4l-0.6,0l-1.17-0.41l-0.1,0.4
		c0.83,0.06,1.19,0.32,1.08,0.77l-1.94,0l-0.09,0.36l2.44,0.41c0.07-0.27,0.32-0.4,0.77-0.4c-0.19,0.78,0.14,1.17,0.99,1.17l0.1-0.4
		l-0.67,0l0.86-0.76l0.19-0.76l-1.37,0.4l-0.67,0l0.19-0.76l1.94,0l0.1-0.4C580.54,136.19,579.75,135.93,578.88,135.42z"/>
	<path fill="#828282" d="M607.64,45.42l60.83,0.14l-2.58,10.66l-0.67,0c-0.4,0-0.57-0.12-0.51-0.36c-1.78,0.36-2.71,0.73-2.81,1.12
		l-0.1,0.4l1.87,0l2.13-0.76l-0.19,0.76l-1.54,1.12l1.27,0l-15.72,64.88c-0.06,0.24-0.31,0.36-0.76,0.36l0.49,0.77l-0.93,3.82
		c-0.07,0.27-0.32,0.4-0.77,0.4l0.5,0.72l-0.56,2.29l-0.67,0c0.18-0.75-0.57-1.13-2.27-1.13l-0.78,0.76l-0.09,0.36l0.6,0l0.19-0.76
		l1.27,0l-0.1,0.4c-0.51,0.48-0.8,0.85-0.87,1.12l-0.67,0l-1.18-0.36l-0.09,0.36c0.03,0.51,0.39,0.77,1.08,0.77l0.67,0l0.97-1.53
		l1.27,0l-0.1,0.4l-1.54,1.12l1.27,0l0.19-0.76l0.67,0l-1.39,5.76l-0.67,0l0.19-0.76c-0.6,0-1.31,0.37-2.14,1.12
		c-0.02,0.51,0.34,0.77,1.08,0.77l1.36-0.36l-0.64,2.65l-0.67,0l0.19-0.76l-0.6,0l-0.19,0.76c0.82,0.09,1.19,0.35,1.08,0.77
		l-1.01,4.18l-43.73-0.1c-0.4,0-0.57-0.12-0.51-0.36l-1.36,0.36l-15.23-0.03l1.57-6.47c0.18-0.75,0.47-1.12,0.87-1.12l-0.13-1.93
		l17.56-72.48c0.19-0.78,10.42-2.03,30.7-3.75l-0.19,0.76l-3.21-0.01l-0.19,0.76l3.21,0.01c-2.46,1.31-3.74,2.2-3.85,2.65l-0.1,0.4
		l0.67,0c0.17-0.72,1.66-1.62,4.46-2.69c0.49-2.01,3.04-3.01,7.67-3c0.79,0,3.39-0.25,7.8-0.75c-0.06,0.24,0.11,0.36,0.51,0.36
		l0.19-0.76l3.81,0.01l0.27-1.12c-4.51,0.74-9.71,1.36-15.61,1.85c0.12-0.51-0.24-0.77-1.08-0.77c-0.25,1.02-2.06,1.52-5.45,1.52
		l-0.09,0.36c-0.45,0-0.64-0.12-0.58-0.36c-10.25,1-15.91,1.75-16.97,2.26c-0.45,0-0.64-0.14-0.57-0.41l-11.12,1.5L607.64,45.42z
		 M606.58,60.26l-0.1,0.4l6.94,0.02l0.1-0.4L606.58,60.26z M612.36,75.57c-0.09,0.39-1.39,1.41-3.87,3.05l-0.09,0.36l0.6,0
		c0.14-0.57,0.91-1.08,2.31-1.52c0.4,0,0.69-0.37,0.87-1.12l1.27,0c-0.12,0.51,0.04,0.76,0.49,0.77l-0.86,0.76l-0.09,0.36l1.94,0
		l0.19-0.76c-1.1-0.81-1.59-1.44-1.48-1.89L612.36,75.57z M641.33,123.37l-0.09,0.36l1.27,0c-0.12,0.51-0.76,1.41-1.92,2.69
		l1.18,0.36c0.06-0.24,0.31-0.36,0.76-0.36c-0.02,0.51,0.34,0.77,1.08,0.77l0.28-1.17c-1.29,0-1.85-0.38-1.67-1.13
		c0.57-0.51,0.89-0.9,0.96-1.17l-1.18-0.36L641.33,123.37z M659.44,114.23l43.66,0.1l-2.49,10.3c-0.06,0.27-0.3,0.4-0.7,0.4
		l0.41,0.77l-0.83,3.42c-0.06,0.24-0.29,0.36-0.69,0.36l0.41,0.77l-1.48,6.11l-0.78,0.76l0.6,0c-0.07,0.27-0.3,0.4-0.7,0.4
		l0.14,1.89l-1.75,7.24l-43.66-0.1l2.58-10.66c0.07-0.27,0.3-0.4,0.7-0.4l-0.41-0.77L659.44,114.23z M660.74,137.54
		c-0.11,0.45-1.17,1.33-3.18,2.65c0.27,0.51,0.38,0.9,0.31,1.17l1.27,0c0.06-0.27,0.38-0.66,0.95-1.17l0.27-1.12
		c0.4,0,0.66-0.25,0.78-0.76l1.18,0.36c-0.28-0.48-0.39-0.85-0.32-1.12L660.74,137.54z M676.25,128.39l-0.97,1.53
		c1.24,0,1.74,0.51,1.49,1.53l0.67,0l0.19-0.76l1.19,0l0.3,1.53l1.27,0l0.97-1.53l-2.17-1.53c-1,0.84-1.52,1.35-1.56,1.53l-0.67,0
		c0.1-0.42-0.23-0.81-0.99-1.17l0.85-0.72l0.1-0.4L676.25,128.39z M680.68,123.05l0.49,0.77l-2.24,1.52
		c-0.02,0.51,0.31,0.77,1.01,0.77l-0.78,0.76l-0.1,0.4l0.6,0l0.19-0.76l1.18,0.36l0.09-0.36c-0.4,0-0.56-0.14-0.5-0.41l1.36-0.36
		l-0.9-1.53l1.27,0l-0.19,0.76l2.05-0.76c-0.06,0.24,0.14,0.36,0.58,0.36l-0.49-0.77l0.09-0.36l0.67,0l1.18,0.36l0.19-0.76
		c-1.14,0-2.48,0.25-3.99,0.76l0.19-0.76L680.68,123.05z M685.63,128.82l-0.27,1.12l-1.68-0.77l0.41,0.77
		c-0.06,0.24-1.09,1-3.09,2.29l-0.09,0.36l1.36-0.36c-0.06,0.24,0.14,0.36,0.58,0.36l-0.49-0.77l0.09-0.36l0.67,0l1.68,0.77
		l1.14-1.93l-0.67,0l0.86-0.76l0.17-0.72L685.63,128.82z M682.11,135.65l-0.1,0.4c0.28,0.48,0.39,0.86,0.32,1.12
		c-0.4,0-0.63,0.13-0.69,0.4l1.87,0l-0.78,0.76c0.28,0.48,0.39,0.86,0.33,1.12l0.67,0l0.27-1.12c-0.45,0-0.64-0.14-0.57-0.41
		l1.36-0.36l1.94,0c-0.25,1.02,0.05,1.53,0.9,1.53l0.19-0.76l-0.2-1.94l-0.6,0l-0.19,0.76l-1.27,0c0.25-1.02-0.28-1.53-1.57-1.53
		c-0.12,0.51-0.61,0.76-1.45,0.76l0.19-0.76L682.11,135.65z M692.26,135.67l0.41,0.77l-0.1,0.4l-0.6,0l-1.17-0.41l-0.1,0.4
		c0.83,0.06,1.19,0.32,1.08,0.77l-1.94,0l-0.09,0.36l2.44,0.41c0.07-0.27,0.32-0.4,0.77-0.4c-0.19,0.78,0.14,1.17,0.99,1.17l0.1-0.4
		l-0.67,0l0.86-0.76l0.19-0.76l-1.37,0.4l-0.67,0l0.19-0.76l1.94,0l0.1-0.4C693.91,136.44,693.13,136.18,692.26,135.67z"/>
</g>
<g>
	<g>
		<path fill="#2B2B2B" d="M43.74,112.02c3.16,5.92,10.33,8.89,21.49,8.89h55.66l1.66-7.08H56.39
			C51.36,113.83,47.15,113.22,43.74,112.02z"/>
		<path fill="#2B2B2B" d="M159.55,97.25c2.19,4.1,2.47,9.63,0.81,16.58l-1.98,8.49c-4.03,16.98-15.5,25.46-34.41,25.46H31.2
			c-0.95,2.17-1.75,4.52-2.35,7.08h103.98c18.9,0,30.37-8.49,34.41-25.46l1.98-8.49C172.17,108.45,168.94,100.56,159.55,97.25z"/>
		<path fill="#2B2B2B" d="M172.09,61.49c-5.33,12.24-16,18.38-32.05,18.38H73.87l-1.99,8.49h10.51l0.33-1.41h66.17
			c18.9,0,30.37-8.49,34.41-25.46H172.09z"/>
	</g>
	<g>
		<path fill="#2B2B2B" d="M208.64,88.36h9.45l1.98-8.49c0.79-3.31,1.86-6.28,3.21-8.95l2.23-9.44H215L208.64,88.36z"/>
		<polygon fill="#2B2B2B" points="259.3,113.83 202.59,113.83 194.55,147.78 167.27,147.78 165.59,154.86 203.4,154.86 
			211.44,120.91 257.63,120.91 		"/>
		<path fill="#2B2B2B" d="M296.3,97.25c2.19,4.1,2.47,9.63,0.81,16.58l-8.03,33.95h-27.28l-1.68,7.08h37.81l8.03-33.95
			C308.92,108.45,305.69,100.56,296.3,97.25z"/>
		<polygon fill="#2B2B2B" points="309.51,61.49 305.15,79.88 257.88,79.88 255.9,88.36 266.41,88.36 266.73,86.95 314,86.95 
			320.04,61.49 		"/>
	</g>
	<g>
		<polygon fill="#2B2B2B" points="337.35,122.31 347.88,122.31 362.27,61.49 351.75,61.49 		"/>
		<path fill="#2B2B2B" d="M446.27,61.49l-20.44,86.29H321.85c-5.03,0-9.24-0.61-12.64-1.81c3.16,5.92,10.33,8.89,21.49,8.89h103.97
			l22.12-93.37H446.27z"/>
	</g>
	<g>
		<path fill="#2B2B2B" d="M566.27,129.39c-5.33,12.24-16,18.38-32.05,18.38h-93.45l-1.68,7.08h103.97c18.9,0,30.37-8.49,34.41-25.46
			H566.27z"/>
		<polygon fill="#2B2B2B" points="474.1,122.31 484.63,122.31 499.02,61.49 488.5,61.49 		"/>
	</g>
	<g>
		<polygon fill="#2B2B2B" points="610.86,122.31 621.38,122.31 635.77,61.49 625.25,61.49 		"/>
		<path fill="#2B2B2B" d="M703.02,129.39c-5.33,12.24-16,18.38-32.05,18.38h-93.45l-1.68,7.08h103.97c18.9,0,30.37-8.49,34.41-25.46
			H703.02z"/>
	</g>
</g>
<g>
	<g>
		<path fill="#DDDDDD" d="M314.42,137.6H418.4l8.13-34.33c-41.46,10.18-84.87,20.81-127.66,31.26
			C302.67,136.57,307.85,137.6,314.42,137.6z"/>
		<path fill="#DDDDDD" d="M431.22,102.11l-8.41,35.49h103.97c18.9,0,30.37-8.49,34.41-25.46h-94.52l4.71-19.89
			C458.28,95.47,444.86,98.77,431.22,102.11z"/>
		<path fill="#DDDDDD" d="M603.42,112.14l13.17-55.65c-12.05,2.97-25.52,6.3-40.16,9.91l-15.59,65.8l76.3-20.05H603.42z"/>
	</g>
	<g>
		<path fill="#DDDDDD" d="M114.54,137.6c18.9,0,30.37-8.49,34.41-25.46l1.05-4.5c-44.26,10.77-86.55,21.01-123.79,29.96H114.54z"/>
		<path fill="#DDDDDD" d="M282.38,126.06l5.3-22.41c3.69-15.55-2.25-23.98-17.81-25.28c-38.49,9.43-77.51,18.96-115.19,28.13
			l-7.37,31.1h37.81l8.03-33.95h56.71l-7.81,33.01L282.38,126.06z"/>
		<path fill="#DDDDDD" d="M327.92,112.14l12.06-50.96c-13.19,3.24-26.6,6.53-40.14,9.85l-9.73,41.11c-1.11,4.67-1.35,8.7-0.72,12.08
			l45.98-12.08H327.92z"/>
		<path fill="#DDDDDD" d="M438.51,44.23h-29.59c-2.89,0.71-5.8,1.43-8.73,2.15L387.9,98.33l40.3-10.59L438.51,44.23z"/>
		<polygon fill="#DDDDDD" points="480.74,44.23 442.93,44.23 432.92,86.5 473.24,75.91 		"/>
		<polygon fill="#DDDDDD" points="579.68,44.23 578.75,48.19 593.79,44.23 		"/>
	</g>
</g>
</svg>
